<?xml version="1.0" encoding="UTF-8"?>
<!DOCTYPE svg PUBLIC "-//W3C//DTD SVG 1.1//EN" "http://www.w3.org/Graphics/SVG/1.1/DTD/svg11.dtd">
<!-- Creator: CorelDRAW 2017 -->
<svg xmlns="http://www.w3.org/2000/svg" xml:space="preserve" width="93.1216mm" height="50.9283mm" version="1.1" style="shape-rendering:geometricPrecision; text-rendering:geometricPrecision; image-rendering:optimizeQuality; fill-rule:evenodd; clip-rule:evenodd"
viewBox="0 0 20538.18 11232.35"
 xmlns:xlink="http://www.w3.org/1999/xlink">
 <defs>
  <style type="text/css">
   <![CDATA[
    .fil0 {fill:black}
   ]]>
  </style>
 </defs>
 <g id="Warstwa_x0020_1">
  <metadata id="CorelCorpID_0Corel-Layer"/>
  <path class="fil0" d="M-0 830.23c0,706.61 380.52,876.47 1123.18,1619.14 442.12,442.12 841.5,841.5 1283.64,1283.64 1383.97,1383.97 3887.46,3780.4 5074.58,5077.82l614.26 611.02c228.12,228.25 413.65,413.65 641.83,641.81 1406.77,1406.79 1440.36,1681.2 3063.21,58.36l7614.3 -7614.3c626.66,-626.66 1123.18,-935.72 1123.18,-1677.48 0,-343.16 -721.87,-1501.28 -1867.64,-292.25l-997.76 986.05c-198.83,205.91 -347.3,389.3 -562.5,604.42 -543.71,543.55 -6592.2,6527.33 -6782.84,6812.05 -290.71,-194.66 -7171.1,-7141.93 -7978.99,-7949.81 -592.54,-592.56 -826.59,-977.31 -1531.6,-977.31 -364.35,0 -816.86,452.51 -816.86,816.86z"/>
 </g>
</svg>
