<?xml version="1.0" encoding="UTF-8"?>
<!DOCTYPE svg PUBLIC "-//W3C//DTD SVG 1.1//EN" "http://www.w3.org/Graphics/SVG/1.1/DTD/svg11.dtd">
<!-- Creator: CorelDRAW 2017 -->
<svg xmlns="http://www.w3.org/2000/svg" xml:space="preserve" width="97.3544mm" height="52.366mm" version="1.1" style="shape-rendering:geometricPrecision; text-rendering:geometricPrecision; image-rendering:optimizeQuality; fill-rule:evenodd; clip-rule:evenodd"
viewBox="0 0 8053.7 4332.01"
 xmlns:xlink="http://www.w3.org/1999/xlink">
 <defs>
  <style type="text/css">
   <![CDATA[
    .fil0 {fill:black}
   ]]>
  </style>
 </defs>
 <g id="Warstwa_x0020_1">
  <metadata id="CorelCorpID_0Corel-Layer"/>
  <path class="fil0" d="M-0 175.08c0,149.44 116.75,215.23 213.38,311.86 750.73,750.71 1513.78,1579.44 2254.16,2319.81 153.37,153.37 385.48,357.8 512.09,516.51 229.6,287.82 580.7,565.63 756.26,775.68 190.86,228.36 294.17,375.49 578.72,18.69 201.95,-253.22 546.63,-524.9 756.27,-775.68 47.81,-57.2 54.22,-75.07 110.08,-130.65l2396.73 -2461.75c166.46,-166.44 476,-416.15 476,-574.48 0,-112.93 -91.12,-175.08 -196.96,-175.08l-7659.77 0c-105.85,0 -196.97,62.15 -196.97,175.08z"/>
 </g>
</svg>
