<?xml version="1.0" encoding="UTF-8"?>
<!DOCTYPE svg PUBLIC "-//W3C//DTD SVG 1.1//EN" "http://www.w3.org/Graphics/SVG/1.1/DTD/svg11.dtd">
<!-- Creator: CorelDRAW 2017 -->
<svg xmlns="http://www.w3.org/2000/svg" xml:space="preserve" width="18.6105mm" height="18.6105mm" version="1.1" style="shape-rendering:geometricPrecision; text-rendering:geometricPrecision; image-rendering:optimizeQuality; fill-rule:evenodd; clip-rule:evenodd"
viewBox="0 0 3520.47 3520.47"
 xmlns:xlink="http://www.w3.org/1999/xlink">
 <defs>
  <style type="text/css">
   <![CDATA[
    .fil0 {fill:black}
   ]]>
  </style>
 </defs>
 <g id="Warstwa_x0020_1">
  <metadata id="CorelCorpID_0Corel-Layer"/>
  <path class="fil0" d="M702.54 2451.15c0,-87.24 63.39,-139.83 115.15,-139.83l1921.36 0c160.62,0 170.63,255 0,255l-1921.36 0c-54.37,0 -115.15,-60.76 -115.15,-115.16zm-37.81 -1242.01c0,-61.12 48.45,-123.39 106.92,-123.39l1983.86 0c139.59,0 154.25,254.98 -24.67,254.98l-1934.52 0c-74.34,0 -131.58,-57.26 -131.58,-131.58zm-664.73 -131.62l0 1365.42c0,302.51 63.31,594.13 273.34,804.18 207.93,207.91 502.06,273.34 804.18,273.34l1365.42 0c309.59,0 596.59,-64.37 808.31,-277.45 38.1,-38.38 88.85,-105.25 117.79,-153.64 32.59,-54.56 65.79,-121.78 86.66,-184.76 44.61,-134.52 64.77,-296.69 64.77,-478.14l0 -1332.5c0,-266.5 -45.08,-543.34 -204.32,-741.62 -11.77,-14.64 -17.8,-18.56 -30.72,-35.07 -48.63,-62.2 -119.72,-116.83 -186.03,-159.43 -59.06,-37.91 -111.78,-61.21 -182.81,-88.62 -124.93,-48.18 -303.78,-69.23 -473.65,-69.23l-1365.42 0c-706.91,0 -1077.53,369.33 -1077.53,1077.53z"/>
 </g>
</svg>
