<?xml version="1.0" encoding="UTF-8"?>
<!DOCTYPE svg PUBLIC "-//W3C//DTD SVG 1.1//EN" "http://www.w3.org/Graphics/SVG/1.1/DTD/svg11.dtd">
<!-- Creator: CorelDRAW 2017 -->
<svg xmlns="http://www.w3.org/2000/svg" xml:space="preserve" width="16.8371mm" height="14.2419mm" version="1.1" style="shape-rendering:geometricPrecision; text-rendering:geometricPrecision; image-rendering:optimizeQuality; fill-rule:evenodd; clip-rule:evenodd"
viewBox="0 0 853.62 722.04"
 xmlns:xlink="http://www.w3.org/1999/xlink">
 <defs>
  <style type="text/css">
   <![CDATA[
    .fil0 {fill:#2196F3}
   ]]>
  </style>
 </defs>
 <g id="Warstwa_x0020_1">
  <metadata id="CorelCorpID_0Corel-Layer"/>
  <path class="fil0" d="M221.94 395.39c17.72,-5.2 163.42,-1.55 194.46,-1.55 22.15,0 78.85,-3.85 93.3,5.14 23.35,14.53 18.57,51.86 -8.45,59.1 -21.03,5.64 -162.54,1.4 -195.63,1.4 -22.08,0 -78.96,3.86 -93.3,-5.15 -23.84,-14.98 -19.48,-50.4 9.6,-58.94zm0 -131.28c13.1,-3.85 347.48,-1.58 391.42,-1.6 58.53,-0.02 49.73,55.62 19.16,64.27 -13.12,3.72 -348.32,1.41 -392.56,1.45 -56.46,0.05 -52.76,-53.92 -18.02,-64.12zm-221.94 84.6c0,84.28 18.55,139.84 64.77,203.95l25.48 31.95c-6.24,9.33 -57.44,58.5 -72.31,73.34 -8.82,8.8 -17.95,14.42 -17.95,31.28 0,16.04 13.61,32.82 28.72,32.82l416.41 0c68.33,0 163.68,-27.04 221.17,-61.91 41.66,-25.28 84.16,-58.1 114.41,-96.87 22.44,-28.78 48,-73.26 58.55,-107.6 19.2,-62.52 18.94,-124.89 0.48,-187.71 -7.24,-24.64 -18.59,-44.75 -29.48,-64.88 -5.99,-11.07 -11.53,-18.93 -18.45,-28.73 -13.52,-19.16 -27.07,-34.17 -43.6,-50.75 -8.3,-8.32 -17.09,-16.23 -26.12,-23.11l-26.8 -20.38c-9.98,-6.32 -18.64,-11.92 -28.98,-18.19 -58.02,-35.2 -151.05,-61.91 -225.27,-61.91 -70.09,0 -128.43,6.94 -186.99,30.45 -21.19,8.5 -45.77,18.52 -64.48,29.87 -37.53,22.78 -77.45,51.02 -105.14,85.62 -3.72,4.65 -7.13,7.05 -10.88,11.68 -3.83,4.73 -6.83,9.13 -10.34,14.28 -20.66,30.32 -36.7,57.68 -49.09,94.5 -6.8,20.2 -14.09,55.19 -14.09,82.31z"/>
 </g>
</svg>
