<?xml version="1.0" encoding="UTF-8"?>
<!DOCTYPE svg PUBLIC "-//W3C//DTD SVG 1.1//EN" "http://www.w3.org/Graphics/SVG/1.1/DTD/svg11.dtd">
<!-- Creator: CorelDRAW 2017 -->
<svg xmlns="http://www.w3.org/2000/svg" xml:space="preserve" width="9.0588mm" height="10.0392mm" version="1.1" style="shape-rendering:geometricPrecision; text-rendering:geometricPrecision; image-rendering:optimizeQuality; fill-rule:evenodd; clip-rule:evenodd"
viewBox="0 0 158.28 175.41"
 xmlns:xlink="http://www.w3.org/1999/xlink">
 <defs>
  <style type="text/css">
   <![CDATA[
    .fil0 {fill:black}
   ]]>
  </style>
 </defs>
 <g id="Warstwa_x0020_1">
  <metadata id="CorelCorpID_0Corel-Layer"/>
  <path class="fil0" d="M61.67 140.81c0,-9.78 8.08,-17.81 16.1,-17.81 4,0 5.29,-0.09 9.14,1.82 1.11,0.55 1.72,0.75 2.59,1.52l2.37 2.08c2.64,3.16 4.74,6.69 4.74,12.39l0 17.13 -34.94 0 0 -17.13zm-43.85 -140.81l122.65 0 0 156.91c0,0.79 0.24,1.03 1.03,1.03l16.79 0 0 17.47 -158.28 0 0 -17.47 16.79 0c0.79,0 1.03,-0.24 1.03,-1.03l0 -156.91zm87.7 87.7l17.47 0 0 17.47 -17.47 0 0 -17.47zm-34.94 0l17.13 0 0 17.47 -17.13 0 0 -17.47zm-35.29 0l17.47 0 0 17.47 -17.47 0 0 -17.47zm70.23 -34.94l17.47 0 0 17.47 -17.47 0 0 -17.47zm-34.94 0l17.13 0 0 17.47 -17.13 0 0 -17.47zm-35.29 0l17.47 0 0 17.47 -17.47 0 0 -17.47zm70.23 -35.29l17.47 0 0 17.47 -17.47 0 0 -17.47zm-34.94 0l17.13 0 0 17.47 -17.13 0 0 -17.47zm-35.29 0l17.47 0 0 17.47 -17.47 0 0 -17.47z"/>
 </g>
</svg>
