<?xml version="1.0" encoding="UTF-8"?>
<!DOCTYPE svg PUBLIC "-//W3C//DTD SVG 1.1//EN" "http://www.w3.org/Graphics/SVG/1.1/DTD/svg11.dtd">
<!-- Creator: CorelDRAW 2017 -->
<svg xmlns="http://www.w3.org/2000/svg" xml:space="preserve" width="11.2545mm" height="12.848mm" version="1.1" style="shape-rendering:geometricPrecision; text-rendering:geometricPrecision; image-rendering:optimizeQuality; fill-rule:evenodd; clip-rule:evenodd"
viewBox="0 0 289.3 330.26"
 xmlns:xlink="http://www.w3.org/1999/xlink">
 <defs>
  <style type="text/css">
   <![CDATA[
    .str0 {stroke:black;stroke-width:2.57;stroke-miterlimit:22.9256}
    .fil0 {fill:black}
   ]]>
  </style>
 </defs>
 <g id="Warstwa_x0020_1">
  <metadata id="CorelCorpID_0Corel-Layer"/>
  <g id="_2304096023168">
   <path class="fil0 str0" d="M21.76 284.81l0 -198.4c0,-8.56 2.92,-15.19 7.93,-18.95 6.98,-5.23 10.36,-3.77 16.39,-4.08 2.9,-0.15 3.03,-0.64 6.4,-0.64l0 186.24c0,12.85 9.13,25.36 18.68,31.88 13.26,9.05 22.37,7.16 43.4,7.16 33.92,0 67.84,0 101.76,0 -0.81,3.46 -0.69,5.49 -2.34,8.54 -1.42,2.62 -2.86,4.06 -4.85,6.03 -4.03,3.97 -8.69,5.9 -16.49,5.9l-147.2 0c-14.49,0 -23.68,-9.19 -23.68,-23.68zm51.2 -40.96l0 -198.4c0,-14.49 9.19,-23.68 23.68,-23.68l99.2 0 0 42.88c0,19.2 19.5,39.04 39.04,39.04l32.64 0 0 140.16c0,8.64 -2.1,12.69 -6.55,17.13 -4.45,4.44 -8.5,6.55 -17.13,6.55l-147.2 0c-14.49,0 -23.68,-9.19 -23.68,-23.68zm143.36 -220.8c3.5,2.34 33.32,39.46 37.93,44.63l12.63 15.53c-9.17,0 -18.39,0.1 -27.55,0.03 -9.03,-0.07 -12.89,-5.42 -16.49,-11.02 -8.4,-13.06 -6.52,-28.53 -6.52,-49.16zm-163.84 17.28l0 1.92c-15.62,0 -26.67,-0.55 -38.89,11.67 -5.67,5.67 -12.31,16.32 -12.31,27.37l0 208.65c0,19.01 20.03,39.04 39.04,39.04l157.44 0c18.63,0 39.04,-18.87 39.04,-40.96 15.31,0 26.07,0.51 38.89,-12.31 5.4,-5.4 12.31,-16.23 12.31,-26.73l0 -165.12c0,-1.46 -6.43,-7.82 -8.59,-10.61l-56.15 -64.18c-1.29,-1.6 -5.71,-7.77 -7.59,-7.77l-124.16 0c-19.01,0 -39.04,20.03 -39.04,39.04z"/>
   <path class="fil0 str0" d="M113.93 153.61c0,8.67 4.34,12.16 13.44,12.16l85.76 0c3.87,0 6.81,-0.54 9.27,-2.25 7.62,-5.3 4.59,-18.87 -6.07,-18.87l-92.16 0c-5,0 -10.24,4.25 -10.24,8.96z"/>
   <path class="fil0 str0" d="M113.93 204.81c0,6.33 2.91,11.52 9.6,11.52l93.44 0c12.72,0 13.09,-20.48 -0.64,-20.48l-92.16 0c-5,0 -10.24,4.25 -10.24,8.96z"/>
  </g>
 </g>
</svg>
