<?xml version="1.0" encoding="UTF-8"?>
<!DOCTYPE svg PUBLIC "-//W3C//DTD SVG 1.1//EN" "http://www.w3.org/Graphics/SVG/1.1/DTD/svg11.dtd">
<!-- Creator: CorelDRAW 2017 -->
<svg xmlns="http://www.w3.org/2000/svg" xml:space="preserve" width="11.3055mm" height="11.9005mm" version="1.1" style="shape-rendering:geometricPrecision; text-rendering:geometricPrecision; image-rendering:optimizeQuality; fill-rule:evenodd; clip-rule:evenodd"
viewBox="0 0 1010.09 1063.25"
 xmlns:xlink="http://www.w3.org/1999/xlink">
 <defs>
  <style type="text/css">
   <![CDATA[
    .fil0 {fill:black}
   ]]>
  </style>
 </defs>
 <g id="Warstwa_x0020_1">
  <metadata id="CorelCorpID_0Corel-Layer"/>
  <g id="_2304101729488">
   <path class="fil0" d="M709.08 983.14l-407.82 0c-30.88,0 -54.22,-21.59 -65.52,-41.3 -11.72,-20.45 -11.22,-63.28 -12.08,-94.72 -0.33,-12.02 -2.25,-12.11 -2.58,-24.12l-16.84 -306.01c-0.33,-12.02 -2.25,-12.11 -2.58,-24.12l-4.65 -77.89c-1.61,-19.78 -0.67,-49.12 -4.32,-75.78l-5.51 -103.72 359.26 0c95.72,0 183.5,2.43 279.17,2.43l-16.92 276.81c-0.31,12.03 -2.26,12.09 -2.57,24.12 -1.07,41.16 -6.87,91.98 -7.13,128.82 -0.09,12.6 -1.96,13.33 -2.52,24.19l-9.57 153.07c-2.84,34.57 0.57,69.64 -11.53,95.29 -9.85,20.88 -36.41,42.96 -66.28,42.96zm-320.43 -873.91c0,-15.14 6.94,-26.7 21.84,-26.7l189.35 0c28.74,0 21.84,40.46 21.84,72.82l-233.04 0 0 -46.13zm-77.69 -12.13l0 58.26 -271.88 0c-47.26,0 -54.51,68.52 -6.01,78.83 19.77,4.21 50.05,1.28 71.56,1.28 3.55,15.22 10.88,154.66 12.13,179.64 2.68,53.76 10.75,127.94 12.08,182.13l8.36 120.28c1.72,11.4 0.8,18.49 1.4,30.16l7.16 89.93c3.4,42.47 1.52,81.34 12.23,116.43 16.85,55.23 75.92,109.2 148.12,109.2l402.96 0c72.47,0 137.64,-57.68 151.63,-134.82 1.83,-10.1 0.8,-18.9 2.33,-29.22l8.02 -120.63c2.48,-18.18 2.54,-43.95 3.02,-62.52 0.88,-34.07 9.88,-113.47 9.73,-148.06l5.57 -91.52c5.27,-38.55 11.78,-221.42 16.33,-240.99 51.42,0 104.38,11.75 104.38,-46.12 0,-17.89 -19.86,-33.99 -38.84,-33.99l-271.88 0c0,-47.4 6.53,-90.92 -30.24,-125.11 -15.1,-14.04 -41.6,-30.25 -69.28,-30.25l-189.35 0c-13.78,0 -29.72,5.1 -38.91,9.64 -32.2,15.89 -60.62,47.2 -60.62,87.46z"/>
   <path class="fil0" d="M621.69 400.54l0 419.96c0,22.36 33.75,51.15 64.68,25.84 5.56,-4.56 13,-16.93 13,-25.84l0 -419.96c0,-49.86 -77.68,-50.88 -77.68,0z"/>
   <path class="fil0" d="M310.96 400.54l0 419.96c0,22.36 33.75,51.15 64.68,25.84 5.57,-4.56 13.01,-16.93 13.01,-25.84l0 -419.96c0,-49.86 -77.69,-50.88 -77.69,0z"/>
   <path class="fil0" d="M466.33 400.54l0 419.96c0,22.36 33.75,51.15 64.68,25.84 5.57,-4.56 13.01,-16.93 13.01,-25.84l0 -419.96c0,-49.86 -77.69,-50.88 -77.69,0z"/>
  </g>
 </g>
</svg>
