<?xml version="1.0" encoding="UTF-8"?>
<!DOCTYPE svg PUBLIC "-//W3C//DTD SVG 1.1//EN" "http://www.w3.org/Graphics/SVG/1.1/DTD/svg11.dtd">
<!-- Creator: CorelDRAW 2017 -->
<svg xmlns="http://www.w3.org/2000/svg" xml:space="preserve" width="20.7155mm" height="18.4462mm" version="1.1" style="shape-rendering:geometricPrecision; text-rendering:geometricPrecision; image-rendering:optimizeQuality; fill-rule:evenodd; clip-rule:evenodd"
viewBox="0 0 432.41 385.04"
 xmlns:xlink="http://www.w3.org/1999/xlink">
 <defs>
  <style type="text/css">
   <![CDATA[
    .fil0 {fill:black}
   ]]>
  </style>
 </defs>
 <g id="Warstwa_x0020_1">
  <metadata id="CorelCorpID_0Corel-Layer"/>
  <path class="fil0" d="M214.52 85.3c21.4,0 17.09,-25.48 52.61,-47.04 9.02,-5.47 22.54,-11.53 36.06,-12.08 8.35,-0.34 10.62,-1.43 22.36,0.46 26.71,4.3 44.18,16.42 60.16,36.12 3.8,4.69 6.41,9.56 9.26,15.23 16.7,33.19 15.58,71.59 -1.84,106.55 -1.51,3.03 -3.11,5.49 -4.59,8.08l-9.33 14.31c-1.66,2.34 -3.34,4.35 -5.18,6.64 -9.75,12.19 -30.62,35.91 -41.27,44.03 -2.44,1.86 -3.86,3.41 -6.12,5.7l-32.14 28.67c-1.56,1.32 -1.74,1.18 -3.32,2.59l-74.97 64.38c-1.71,-1.14 -1.64,-1.37 -3.19,-2.72 -1.53,-1.34 -1.81,-1.32 -3.31,-2.6l-45.27 -39.19c-1.56,-1.32 -1.74,-1.18 -3.32,-2.59 -1.29,-1.15 -1.71,-1.77 -3.06,-2.86l-32.71 -28.1c-2.61,-2.01 -3.74,-3.77 -6.14,-5.68l-19.06 -17.25c-4.89,-3.78 -8.24,-7.68 -12.52,-11.97 -4.12,-4.12 -7.8,-7.61 -11.84,-11.81 -2.33,-2.42 -2.96,-3.89 -5.47,-6.36 -2.64,-2.59 -3.49,-4.21 -5.92,-6.75l-10.48 -13.17c-9.03,-12.29 -11.51,-17.63 -18.18,-30.81 -17.89,-35.39 -11.82,-88.87 15.56,-119.88l6.33 -6.34c5.05,-4.41 7.35,-7.23 13.57,-10.92 35.04,-20.74 69.24,-18.76 100.59,2.76l12.53 11.12c5.2,5.14 12.38,14.65 16.18,20.98 2.73,4.55 8.15,10.48 14.01,10.48zm-214.52 37.16c0,33.16 3.93,51.59 20.01,80.49 15.66,28.15 37.47,49 59.59,71.32 2.96,2.99 5.24,4.39 8.04,7.16 5.01,4.97 9.69,8.99 15.15,13.57l7.6 6.76c1.44,1.2 2.07,2.06 3.4,3.35 1.88,1.82 2.34,1.84 4.2,3.4 1.46,1.23 2.04,2.1 3.43,3.33 13.87,12.33 33.74,27.92 46.87,40.12 1.83,1.71 2.42,1.8 4.21,3.39 5.42,4.83 26.63,23.71 31.87,26.41 8.5,4.37 14.4,4.24 23.22,0.36 3.9,-1.72 5.37,-3.56 8.32,-6.04 5.49,-4.62 10.06,-8.56 15.53,-13.18l62.55 -54c1.68,-1.5 2.1,-1.48 3.79,-2.97l19.02 -17.3c1.8,-1.59 2.4,-1.68 4.23,-3.37 1.47,-1.36 2.34,-2.41 3.77,-3.83l14.8 -13.92c7.83,-7.83 17.26,-16.82 24.45,-25.37 24.05,-28.59 48.39,-66.12 48.39,-105.32 0,-25.08 -1.11,-38.85 -10.86,-62.62 -9.03,-22.03 -26.43,-44.19 -46.84,-56.19 -3.74,-2.2 -5.44,-3.56 -9.58,-5.62 -19.66,-9.78 -34.64,-12.38 -57.71,-12.38 -22.76,0 -50.01,11.41 -64.78,23.9 -3.45,2.91 -6.17,5.24 -9.33,8.41 -2.88,2.89 -6.36,5.93 -8.78,8.95 -2.14,2.67 -6.63,7.11 -7.47,10.26l-1.69 0c-1.63,-6.09 -19.97,-22.88 -25.58,-27.62 -14.7,-12.43 -41.94,-23.9 -64.78,-23.9 -22.47,0 -38.04,2.55 -57.15,12.1 -9.53,4.77 -27.59,17.54 -33.7,25.41 -10.43,13.43 -15.51,17.65 -23.04,36.08 -2.91,7.12 -5.53,13.71 -7.37,22.19 -1.69,7.79 -3.73,17.88 -3.73,26.67z"/>
 </g>
</svg>
