<?xml version="1.0" encoding="UTF-8"?>
<!DOCTYPE svg PUBLIC "-//W3C//DTD SVG 1.1//EN" "http://www.w3.org/Graphics/SVG/1.1/DTD/svg11.dtd">
<!-- Creator: CorelDRAW 2017 -->
<svg xmlns="http://www.w3.org/2000/svg" xml:space="preserve" width="8.4696mm" height="11.2928mm" version="1.1" style="shape-rendering:geometricPrecision; text-rendering:geometricPrecision; image-rendering:optimizeQuality; fill-rule:evenodd; clip-rule:evenodd"
viewBox="0 0 143.04 190.72"
 xmlns:xlink="http://www.w3.org/1999/xlink">
 <defs>
  <style type="text/css">
   <![CDATA[
    .fil0 {fill:black}
   ]]>
  </style>
 </defs>
 <g id="Warstwa_x0020_1">
  <metadata id="CorelCorpID_0Corel-Layer"/>
  <path class="fil0" d="M38.74 71.52c0,-4.44 1.47,-9.91 2.87,-13.15 1.68,-3.89 3.91,-6.86 6.62,-9.78 1.1,-1.19 3.09,-2.76 4.45,-3.74 3.13,-2.26 7.34,-4.31 11.29,-5.1 9.61,-1.92 18.07,-0.68 25.95,4.79 4,2.77 3.74,3.11 6.46,5.83 0.93,0.94 1.05,1.14 1.81,2.29 5.16,7.83 7.35,16.25 5.21,25.77 -5.05,22.46 -30.49,33.18 -50.28,20.05 -8.63,-5.73 -14.38,-16.5 -14.38,-26.97zm29.36 -71.52l6.65 0c9.1,0.44 18.26,2.68 27.31,6.71 1.93,0.86 3.75,1.95 5.57,2.99 1.84,1.05 3.45,2.11 5.18,3.39l4.82 3.75c0.98,0.86 1.44,1.07 2.42,2.05 6.49,6.52 12.68,13.65 16.4,22.34 5.06,11.82 6.6,18.51 6.6,32.51 0,22.66 -16.87,52.15 -29.96,70.25 -5.62,7.77 -14.34,19.22 -20.99,26.32 -0.72,0.77 -0.68,0.91 -1.32,1.66l-12.83 13.61c-2.95,2.95 -4.44,4.8 -5.89,5.12l-0.93 0c-0.89,-0.2 -1.87,-0.94 -3.24,-2.33 -2.51,-2.54 -7,-6.71 -8.82,-9.06l-16.52 -18.87c-9.26,-11.34 -16.8,-21.85 -24.37,-34.48 -3.98,-6.64 -8.76,-16.19 -11.74,-23.64 -1.17,-2.93 -1.94,-5.51 -2.94,-8.6 -2.97,-9.11 -3.49,-15.07 -3.49,-24.82 0,-10.33 3.5,-20.72 6.71,-27.93 5.1,-11.46 13.84,-20.64 23.73,-28.05 1.7,-1.28 3.29,-2.3 5.21,-3.36 10.52,-5.85 21.42,-9.04 32.45,-9.57z"/>
 </g>
</svg>
