<?xml version="1.0" encoding="UTF-8"?>
<!DOCTYPE svg PUBLIC "-//W3C//DTD SVG 1.1//EN" "http://www.w3.org/Graphics/SVG/1.1/DTD/svg11.dtd">
<!-- Creator: CorelDRAW 2017 -->
<svg xmlns="http://www.w3.org/2000/svg" xml:space="preserve" width="10.9323mm" height="13.4492mm" version="1.1" style="shape-rendering:geometricPrecision; text-rendering:geometricPrecision; image-rendering:optimizeQuality; fill-rule:evenodd; clip-rule:evenodd"
viewBox="0 0 698.7 859.56"
 xmlns:xlink="http://www.w3.org/1999/xlink">
 <defs>
  <style type="text/css">
   <![CDATA[
    .fil0 {fill:black}
   ]]>
  </style>
 </defs>
 <g id="Warstwa_x0020_1">
  <metadata id="CorelCorpID_0Corel-Layer"/>
  <g id="_2304092376592">
   <path class="fil0" d="M334.16 762.73l0 -292.39c0,-23.88 12.19,-36.07 36.07,-36.07l231.63 0c23.28,0 36.07,12.8 36.07,36.07l0 292.39c0,23.28 -12.8,36.07 -36.07,36.07l-231.63 0c-23.28,0 -36.07,-12.8 -36.07,-36.07zm-60.76 -305.68l0 281 -176.57 0c-23.28,0 -36.08,-12.8 -36.08,-36.08l0 -505.03c0,-40.78 32.12,-36.07 60.76,-36.07l0 34.17c0,11.86 14.73,26.58 26.58,26.58l250.62 0c11.86,0 26.58,-14.73 26.58,-26.58l0 -34.17c32.35,0 60.75,-6.19 60.75,22.78l0 189.86 -129.11 0c-40.67,0 -83.54,42.87 -83.54,83.54zm-3.8 -394.91c17.05,0 28.78,5.73 32.87,24.22 0.75,3.41 -5.84,44.13 29.79,44.13l32.28 0 0 30.38 -182.27 0 0 -30.38c22.57,0 40.27,3.64 53.35,-9.31 13.31,-13.17 7.23,-25.7 8.42,-33.32 2.3,-14.68 13.56,-25.72 25.56,-25.72zm-85.44 7.59c-18.92,0 -62.65,-8.15 -62.65,30.38l-37.98 0c-40.82,0 -83.54,42.78 -83.54,83.54l0 531.61c0,20.53 14.9,48.67 29.23,60 20.29,16.02 31.96,23.68 67.59,23.54 60.74,-0.23 121.53,-0.01 182.28,-0.01 2.12,9.08 6.65,16.3 11.37,22.8 15.58,21.44 40.18,37.95 70.27,37.95l250.62 0c46.11,0 87.33,-41.23 87.33,-87.33l0 -311.38c0,-16.93 -6.26,-35.24 -15.15,-47.51 -35.73,-49.28 -78.94,-39.83 -136.74,-39.83l0 -201.26c0,-34.82 -37.33,-72.15 -72.15,-72.15l-49.37 0c0,-38.55 -44.18,-30.38 -62.65,-30.38 -2.28,-4.74 -2.27,-8.16 -5.01,-13.98 -2.38,-5.03 -4.33,-9.02 -7.14,-13.75 -33.37,-55.99 -120.81,-55.99 -154.18,0 -8.98,15.08 -8.24,19.6 -12.14,27.72z"/>
   <path class="fil0" d="M364.54 521.6c0,21.01 12.81,34.18 26.58,34.18l189.86 0c13.77,0 26.58,-13.17 26.58,-34.18 0,-11.86 -14.73,-26.58 -26.58,-26.58l-189.86 0c-11.86,0 -26.58,14.73 -26.58,26.58z"/>
   <path class="fil0" d="M364.54 612.74c0,21 12.81,34.17 26.58,34.17l189.86 0c13.77,0 26.58,-13.17 26.58,-34.17 0,-11.86 -14.73,-26.58 -26.58,-26.58l-189.86 0c-11.86,0 -26.58,14.73 -26.58,26.58z"/>
   <path class="fil0" d="M364.54 703.87c0,21.01 12.81,34.18 26.58,34.18l189.86 0c13.77,0 26.58,-13.17 26.58,-34.18 0,-11.86 -14.73,-26.58 -26.58,-26.58l-189.86 0c-11.86,0 -26.58,14.73 -26.58,26.58z"/>
  </g>
 </g>
</svg>
