<?xml version="1.0" encoding="UTF-8"?>
<!DOCTYPE svg PUBLIC "-//W3C//DTD SVG 1.1//EN" "http://www.w3.org/Graphics/SVG/1.1/DTD/svg11.dtd">
<!-- Creator: CorelDRAW 2017 -->
<svg xmlns="http://www.w3.org/2000/svg" xml:space="preserve" width="12.0482mm" height="10.2302mm" version="1.1" style="shape-rendering:geometricPrecision; text-rendering:geometricPrecision; image-rendering:optimizeQuality; fill-rule:evenodd; clip-rule:evenodd"
viewBox="0 0 264.72 224.77"
 xmlns:xlink="http://www.w3.org/1999/xlink">
 <defs>
  <style type="text/css">
   <![CDATA[
    .fil0 {fill:black}
   ]]>
  </style>
 </defs>
 <g id="Warstwa_x0020_1">
  <metadata id="CorelCorpID_0Corel-Layer"/>
  <g id="_2749010247328">
   <path class="fil0" d="M70.83 136.56l0 81.69c0,2.67 3.54,6.2 6.2,6.2l110.64 0c2.67,0 6.2,-3.54 6.2,-6.2l0 -81.69c0,-17.4 -17.76,-35.16 -35.16,-35.16l-52.74 0c-9.51,0 -19.28,6.07 -24.18,10.98 -4.91,4.9 -10.98,14.67 -10.98,24.18z"/>
   <path class="fil0" d="M86.34 44.01c0,14.57 3.98,24.83 13.83,34.77 12.67,12.8 34.33,17.24 50.46,9.36 10.23,-5 17.9,-11.03 23.27,-22.23 7.22,-15.04 5.64,-32.68 -3.72,-46.28 -0.71,-1.02 -1.43,-1.94 -2.28,-2.89 -4.51,-5.04 -8.69,-9.03 -15.19,-12.21 -12.38,-6.05 -27.87,-5.98 -40.35,-0.17 -3.42,1.59 -10.08,6.35 -12.72,8.99l-6.89 9.14c-1.09,1.68 -1.07,1.9 -1.93,3.75 -2.29,4.92 -4.47,10.83 -4.47,17.76z"/>
   <path class="fil0" d="M-0 157.76l0 45.5c0,9.47 8.1,18.37 17.88,20.89 4.62,1.19 31.94,0.31 38.99,0.31 -0.45,-1.95 -1.03,-3.23 -1.03,-5.69l0 -81.69c0,-4.84 1.58,-12.86 3.1,-16.03 -19.83,0 -28.43,-1.63 -41.4,6.17 -8.49,5.1 -17.54,17.03 -17.54,30.54z"/>
   <path class="fil0" d="M208.88 137.08l0 81.69c0,2.45 -0.58,3.74 -1.03,5.69 5.53,0 35.84,0.38 38.58,-0.2 9.76,-2.09 18.3,-11.45 18.3,-20.99l0 -45.5c0,-13.2 -8.87,-25.3 -17.22,-30.35 -13.25,-8.02 -21.65,-6.36 -41.72,-6.36 1.52,3.17 3.1,11.18 3.1,16.03z"/>
   <path class="fil0" d="M213.01 111.74c36.5,0 48.31,-50.19 14.31,-66.02 -27.64,-12.87 -58.98,15.84 -45.85,45.33 4.7,10.56 16.27,20.68 31.54,20.68z"/>
   <path class="fil0" d="M17.06 76.59c0,37.51 50.3,48.64 66.02,14.83 2.73,-5.87 4.01,-14.31 2.25,-21.57 -7.37,-30.31 -44.76,-36.1 -61.55,-12.91 -3.23,4.46 -6.72,11.99 -6.72,19.65z"/>
  </g>
 </g>
</svg>
