<?xml version="1.0" encoding="UTF-8"?>
<!DOCTYPE svg PUBLIC "-//W3C//DTD SVG 1.1//EN" "http://www.w3.org/Graphics/SVG/1.1/DTD/svg11.dtd">
<!-- Creator: CorelDRAW 2017 -->
<svg xmlns="http://www.w3.org/2000/svg" xml:space="preserve" width="43.383mm" height="43.383mm" version="1.1" style="shape-rendering:geometricPrecision; text-rendering:geometricPrecision; image-rendering:optimizeQuality; fill-rule:evenodd; clip-rule:evenodd"
viewBox="0 0 1715.68 1715.68"
 xmlns:xlink="http://www.w3.org/1999/xlink">
 <defs>
  <style type="text/css">
   <![CDATA[
    .fil0 {fill:black}
   ]]>
  </style>
 </defs>
 <g id="Warstwa_x0020_1">
  <metadata id="CorelCorpID_0Corel-Layer"/>
  <path class="fil0" d="M707.05 144.09l0 562.96 -562.96 0c-81.81,0 -139.7,69.54 -144.09,143.55l0 18.03c2.01,33.45 15.34,66.75 42.71,93.94 25.33,25.17 57.96,46.06 98.03,46.06l566.31 0 0 562.96c0,44.63 19.58,75.06 42.7,98.03 27.56,27.39 61.35,42.73 95.53,46.06l28.22 0c32.52,-3.18 63.92,-17.4 89.06,-42.71 25.17,-25.33 46.06,-57.96 46.06,-98.03l0 -566.31 562.96 0c80.36,0 144.09,-68.08 144.09,-157.5 0,-75.37 -68.72,-144.09 -144.09,-144.09l-562.96 0 0 -562.96c0,-77.93 -65.42,-144.09 -157.5,-144.09 -74.97,0 -144.09,68.8 -144.09,144.09z"/>
 </g>
</svg>
