<?xml version="1.0" encoding="UTF-8"?>
<!DOCTYPE svg PUBLIC "-//W3C//DTD SVG 1.0//EN" "http://www.w3.org/TR/2001/REC-SVG-20010904/DTD/svg10.dtd">
<!-- Creator: CorelDRAW 2017 -->
<svg xmlns="http://www.w3.org/2000/svg" xml:space="preserve" width="2.96487cm" height="2.96487cm" version="1.0" style="shape-rendering:geometricPrecision; text-rendering:geometricPrecision; image-rendering:optimizeQuality; fill-rule:evenodd; clip-rule:evenodd"
viewBox="0 0 192.35 192.35"
 xmlns:xlink="http://www.w3.org/1999/xlink">
 <defs>
  <style type="text/css">
   <![CDATA[
    .fil0 {fill:black}
   ]]>
  </style>
 </defs>
 <g id="Warstwa_x0020_1">
  <metadata id="CorelCorpID_0Corel-Layer"/>
  <g id="_2165086934848">
   <path class="fil0" d="M38.74 55.34c0,-4.55 -0.51,-12.04 0.45,-16.15 3.46,-0.81 14.94,-0.81 18.4,0 0,2.78 0.72,16.87 -0.4,18 -1.12,1.12 -15.21,0.4 -18,0.4 -0.23,-1.01 -0.45,-1.03 -0.45,-2.24zm-9.87 -13.46c0,8.32 -1.21,16.41 2.74,21.49 1.47,1.89 4.31,4.08 7.58,4.08l17.95 0c5.22,0 10.32,-5.1 10.32,-10.32 0,-6.04 0.9,-18.47 -1.19,-22.14 -0.51,-0.9 -1.82,-2.65 -2.57,-3.26 -4.98,-4.05 -13.9,-2.86 -21.82,-2.86 -8.2,0 -13.01,4.81 -13.01,13.01z"/>
   <path class="fil0" d="M38.74 150.91c0,-4.55 -0.51,-12.04 0.45,-16.15 2.78,0 16.87,-0.72 18,0.4 1.12,1.12 0.4,15.21 0.4,18 -3.46,0.81 -14.94,0.81 -18.4,0 -0.23,-1.01 -0.45,-1.03 -0.45,-2.24zm-9.87 -13.46c0,11.33 -2.57,26.02 13.01,26.02 7.71,0 16.54,1.13 21.49,-2.74 1.89,-1.48 4.08,-4.31 4.08,-7.58l0 -17.95c0,-5.22 -5.1,-10.32 -10.32,-10.32 -6.04,0 -18.47,-0.9 -22.14,1.19 -0.9,0.51 -2.65,1.82 -3.26,2.57 -1.77,2.18 -2.86,5.03 -2.86,8.8z"/>
   <path class="fil0" d="M153.16 57.59c-2.78,0 -16.87,0.72 -18,-0.4 -1.12,-1.12 -0.4,-15.21 -0.4,-18 3.46,-0.81 14.94,-0.81 18.4,0 0.72,3.09 0.78,16.65 0,18.4zm-28.27 -18.4l0 17.95c0,5.19 5.18,10.32 10.32,10.32l17.95 0c5.8,0 10.32,-6.07 10.32,-12.11 0,-11.78 2.6,-26.47 -13.01,-26.47 -10.84,0 -19.52,-1.8 -24.22,5.84 -0.69,1.13 -1.35,2.66 -1.35,4.48z"/>
   <path class="fil0" d="M192.19 42.33c0,-14.67 1.87,-25.72 -7.29,-34.89 -9.16,-9.16 -20.22,-7.29 -34.89,-7.29 -3.98,0 -7.16,3.05 -5.83,6.69 3.03,8.31 23.72,-2.51 33.77,7.55 5.64,5.64 4.36,12.36 4.36,23.01 0,5.21 -1.05,8.96 2.86,10.64 3.82,1.64 7.01,-1.63 7.01,-5.7z"/>
   <path class="fil0" d="M150.01 192.19c14.67,0 25.72,1.87 34.89,-7.29 9.16,-9.16 7.29,-20.22 7.29,-34.89 0,-3.98 -3.05,-7.16 -6.69,-5.83 -8.31,3.03 2.51,23.72 -7.55,33.77 -5.64,5.64 -12.36,4.36 -23.01,4.36 -5.21,0 -8.96,-1.05 -10.64,2.86 -1.64,3.82 1.63,7.01 5.7,7.01z"/>
   <path class="fil0" d="M0.16 150.01c0,14.67 -1.87,25.72 7.29,34.89 9.16,9.16 20.22,7.29 34.89,7.29 3.98,0 7.16,-3.05 5.83,-6.69 -3.03,-8.31 -23.72,2.51 -33.77,-7.55 -5.64,-5.64 -4.36,-12.36 -4.36,-23.01 0,-5.21 1.05,-8.96 -2.86,-10.64 -3.82,-1.64 -7.01,1.63 -7.01,5.7z"/>
   <path class="fil0" d="M0.16 27.08l0 15.25c0,3.98 3.05,7.16 6.69,5.83 8.31,-3.03 -2.51,-23.72 7.55,-33.77 5.64,-5.64 12.36,-4.36 23.01,-4.36 5.21,0 8.96,1.05 10.64,-2.86 1.64,-3.82 -1.63,-7.01 -5.7,-7.01 -14.67,0 -25.72,-1.87 -34.89,7.29 -4.84,4.84 -7.29,10.15 -7.29,19.63z"/>
   <path class="fil0" d="M115.02 150.01c0,6.19 -1.31,13.46 6.28,13.46l35.89 0c7.6,0 6.28,-7.28 6.28,-13.46 0,-8.25 -9.87,-7.31 -9.87,-1.79l0 5.38 -9.42 0c0,-3.19 0.87,-9.69 -4.94,-9.69 -5.81,0 -4.94,6.49 -4.94,9.69l-9.42 0 0 -5.38c0,-5.51 -9.87,-6.46 -9.87,1.79z"/>
   <path class="fil0" d="M76.88 72.39c0,3.46 3.25,4.94 6.73,4.94l12.56 0 0 8.97 -3.59 0c-8.25,0 -7.31,9.87 -1.79,9.87l20.19 0c5.29,0 7.38,-9.87 -2.24,-9.87l-2.69 0 0 -8.97c2.35,0 5.23,0.21 7.11,-0.97 4.32,-2.72 1.97,-8.9 -2.17,-8.9l-29.61 0c-2.56,0 -4.49,2.36 -4.49,4.94z"/>
   <path class="fil0" d="M96.17 110.08c0,6.05 4.81,5.38 9.42,5.38l0 9.42 -24.23 0c-4.05,0 -6.38,5.82 -2.44,8.72 2.88,2.12 23.99,1.15 29.81,1.15 1.89,0 3.49,-0.27 4.68,-1.15 1.03,-0.76 2.05,-2.19 2.05,-3.79l0 -19.29c0,-6.35 -8.29,-4.94 -13.91,-4.94 -2.9,0 -5.38,1.68 -5.38,4.49z"/>
   <path class="fil0" d="M76.88 33.36c0,2.9 1.68,5.38 4.49,5.38l24.23 0 0 14.36c0,6.45 9.87,6.45 9.87,0l0 -19.29c0,-1.59 -1.01,-3.02 -2.05,-3.79 -2.88,-2.12 -23.99,-1.15 -29.81,-1.15 -1.79,0 -3.27,0.24 -4.42,0.97 -0.91,0.58 -2.31,2.2 -2.31,3.52z"/>
   <path class="fil0" d="M124.89 119.5c0,17.49 -2.81,15.25 22.88,15.25 6.94,0 5.83,-5.36 5.83,-9.87l5.38 0c5.51,0 6.46,-9.87 -1.8,-9.87 -11.38,0 -13.46,-0.85 -13.46,9.87l-8.97 0 0 -3.59c0,-8.25 -9.87,-7.31 -9.87,-1.79z"/>
   <path class="fil0" d="M76.88 148.67c0,6.24 -1.51,14.62 4.94,14.62 5.8,0 4.94,-6.49 4.94,-9.69l14.81 0c5.51,0 6.46,-9.87 -1.79,-9.87 -4.77,0 -18.17,-0.82 -20.83,1.15 -1.03,0.76 -2.05,2.19 -2.05,3.79z"/>
   <path class="fil0" d="M153.6 81.37l0 4.94 -3.59 0c-8.25,0 -7.31,9.87 -1.79,9.87l5.38 0 0 5.38c0,5.51 9.87,6.46 9.87,-1.79 0,-4.45 0.71,-17.91 -0.97,-20.57 -2.72,-4.32 -8.9,-1.97 -8.9,2.17z"/>
   <path class="fil0" d="M48.17 81.82c0,5.7 6.42,4.94 9.42,4.94 0,11.05 1.52,9.42 15.25,9.42 5.51,0 6.46,-9.87 -1.79,-9.87l-3.59 0c0,-10.22 -0.12,-9.42 -14.36,-9.42 -2.62,0 -4.94,2.31 -4.94,4.94z"/>
   <path class="fil0" d="M124.89 81.37l0 20.19c0,5.51 9.87,6.46 9.87,-1.79 0,-4.45 0.71,-17.91 -0.97,-20.57 -2.72,-4.32 -8.9,-1.97 -8.9,2.17z"/>
   <path class="fil0" d="M33.81 115.47l19.29 0c6.45,0 6.45,-9.87 0,-9.87l-19.29 0c-6.19,0 -6.19,9.87 0,9.87z"/>
   <path class="fil0" d="M67.46 110.08c0,6.81 6.46,5.38 14.36,5.38 6.45,0 6.45,-9.87 0,-9.87 -5.72,0 -14.36,-1.34 -14.36,4.49z"/>
   <path class="fil0" d="M76.88 53.1c0,6.35 8.29,4.94 13.91,4.94 7.26,0 7.26,-9.87 0,-9.87 -5.62,0 -13.91,-1.41 -13.91,4.94z"/>
   <path class="fil0" d="M28.87 83.61c0,6.18 -1.14,12.56 5.38,12.56 5.99,0 4.49,-7.89 4.49,-14.81 0,-5.29 -9.87,-7.38 -9.87,2.24z"/>
  </g>
 </g>
</svg>
