<?xml version="1.0" encoding="UTF-8"?>
<!DOCTYPE svg PUBLIC "-//W3C//DTD SVG 1.1//EN" "http://www.w3.org/Graphics/SVG/1.1/DTD/svg11.dtd">
<!-- Creator: CorelDRAW 2017 -->
<svg xmlns="http://www.w3.org/2000/svg" xml:space="preserve" width="17.4625mm" height="17.4625mm" version="1.1" style="shape-rendering:geometricPrecision; text-rendering:geometricPrecision; image-rendering:optimizeQuality; fill-rule:evenodd; clip-rule:evenodd"
viewBox="0 0 297.52 297.52"
 xmlns:xlink="http://www.w3.org/1999/xlink">
 <defs>
  <style type="text/css">
   <![CDATA[
    .fil0 {fill:black}
   ]]>
  </style>
 </defs>
 <g id="Warstwa_x0020_1">
  <metadata id="CorelCorpID_0Corel-Layer"/>
  <g id="_2857709414208">
   <path class="fil0" d="M18.59 239.41c0,-9.09 14.26,-15.35 21.59,-5.32 1.04,1.42 3.4,6.49 9.2,6.49 5.48,0 7.44,-3.05 9.18,-5.93 7.16,-11.89 32,-4.29 16.73,16.73 -6.77,9.32 -12.06,13.76 -20.53,21.31 -1.37,1.22 -3.43,3 -4.8,3.92 -2.51,-0.67 -15.75,-12.66 -18.42,-15.86 -3.57,-4.27 -12.96,-14.71 -12.96,-21.33zm124.82 -239.41l12.53 0c13.06,0.54 25.99,2.8 38.22,6.9 3.1,1.04 5.53,1.95 8.55,3.07 14.05,5.18 8.3,6.09 16.28,3.32 8.03,-2.79 18.07,-1.64 25.05,2.41 7.86,4.56 1.28,1.79 12.47,-2.08 11.63,-4.03 23.85,-1.37 31.57,6.27 5.87,5.81 8.66,11.63 9.43,17.25l0 6.84c-1.83,14.01 -14.17,26.11 -18.59,32.72 6.31,11.92 8.61,16.19 12.72,30.28 5.46,18.74 5.88,27.4 5.88,47 0,40.99 -23.11,85.35 -55.44,110.75 -8.5,6.68 -20.74,14.88 -30.39,19 -8.87,3.79 -16.27,6.92 -26.54,9.48 -16.57,4.14 -24.42,4.29 -40.83,4.29l-0.79 0c-19.05,0 -51.44,-8.29 -66.82,-18.59 -4.74,3.18 -19.95,18.59 -24.99,18.59 -9.56,0 -7.1,-0.81 -20.34,-11.04 -8.11,-6.27 -19.61,-18.59 -24.74,-26.98 -4.95,-8.08 -6.64,-12.4 -6.64,-22.42 0,-8.98 8.83,-21.2 15.11,-22.66l-5.75 -13.43c-7.92,-22.02 -9.36,-33.38 -9.36,-57.46 0,-20.47 7.16,-44.35 13.94,-58.12 4.08,-8.27 8.28,-15.44 13.37,-22.66 1.33,-1.89 2.4,-3.49 3.94,-5.36 9.14,-11.12 15.47,-17.63 26.78,-26.68 23.33,-18.65 54.26,-29.43 85.39,-30.72zm104.71 78.45c-7.51,-5.03 -30.8,-26 -30.8,-36.61 0,-7.51 4.39,-11.04 12.2,-11.04 7.72,0 9.04,6.23 12.04,8.88 2.64,2.34 4.07,2.16 7.14,2.16 10.21,0 5.25,-11.04 19.18,-11.04 5.6,0 11.04,5.1 11.04,9.88 0,11.6 -18.49,26.69 -26,33.85 -1.2,1.14 -3.55,3.09 -4.79,3.92zm-49.97 -37.77c0,14.21 11.45,28.01 19.03,35.59 4.14,4.13 9.15,9.35 13.75,12.98 13.34,10.48 15.47,14.13 25.75,6.48 2.31,-1.72 5.61,-5.03 8.29,-5.65 0.88,3.79 9.26,17.04 12.18,38.38 3.87,28.3 -0.36,59.3 -14.75,83.41 -1.79,3 -3,5.11 -4.87,7.91 -1.85,2.77 -3.32,4.92 -5.26,7.52l-5.74 7.04c-2.31,2.37 -3.73,4.29 -6.1,6.68l-9.89 8.71c-13.49,12.08 -37.81,23.09 -56.55,26.55 -32.48,6 -62.11,-0.02 -84.51,-11.87 4.13,-7.8 9.88,-13.52 9.88,-25.57 0,-14.85 -13.64,-28.47 -28.47,-28.47 -10.53,0 -13.19,0.83 -21.5,6.39 -0.1,-0.09 -0.27,-0.37 -0.32,-0.27 -0.05,0.1 -0.25,-0.21 -0.32,-0.27 -8.78,-6.88 -13.16,-3.51 -15.49,-7.75 -5.75,-10.48 -10.07,-24.65 -12.41,-36.4 -0.62,-3.1 -1.13,-7.6 -1.53,-10.67 -0.27,-2.12 -0.01,-4.07 -0.24,-6.15 -0.93,-8.48 -0.32,-15.44 0.91,-24.25 0.88,-6.27 1.9,-11.26 3.49,-16.85 3.54,-12.5 8.8,-24.94 15.56,-35 4.45,-6.63 14.39,-19.92 20.39,-24.93 13.47,-11.26 22.02,-18.48 40.01,-25.66 9.97,-3.98 20.05,-7.06 32.05,-8.63 19.86,-2.6 50.73,0.05 68.98,9.71 -0.79,3.4 -2.32,5.44 -2.32,11.04z"/>
   <path class="fil0" d="M74.38 186.53c0,6.92 6.06,10.38 12.34,15.56l15.94 10.21c33.26,16.56 68.68,14.02 100.33,-4.66 1.68,-0.99 2.36,-1.54 3.79,-2.6 4.31,-3.19 16.36,-11.54 16.36,-16.76 0,-12.24 -10.95,-12.39 -15.54,-8.57 -6.07,5.06 -5.14,6.04 -15.5,12.39 -21,12.87 -43.39,15.23 -67.05,8.85 -15.2,-4.1 -24.26,-11.5 -34.82,-20.96 -5.76,-5.16 -15.85,-1.86 -15.85,6.55z"/>
   <path class="fil0" d="M70.89 139.46c10.53,0 9.55,-9.27 10.1,-11.98 2.49,-12.26 20.66,-12.92 23.84,-0.47 0.64,2.49 -0.61,12.45 10.22,12.45 5.57,0 9.77,-5.1 9.08,-10.78 -1.4,-11.63 -5.57,-19.22 -15.35,-25.37 -6.85,-4.31 -16.2,-5.48 -24.3,-3.13 -7.55,2.18 -13.44,6.72 -17.67,13.13 -3.14,4.75 -4.13,8.13 -5.01,15.38 -0.68,5.68 3.51,10.78 9.08,10.78z"/>
   <path class="fil0" d="M182.46 139.46c10.53,0 9.55,-9.27 10.1,-11.98 2.49,-12.26 20.66,-12.92 23.84,-0.47 0.98,3.85 -0.29,5.41 1.96,8.5 5.8,7.95 18.55,3.26 17.34,-6.83 -1.4,-11.63 -5.57,-19.22 -15.35,-25.37 -6.85,-4.31 -16.2,-5.48 -24.3,-3.13 -7.55,2.18 -13.44,6.72 -17.67,13.13 -3.14,4.75 -4.13,8.13 -5.01,15.38 -0.68,5.68 3.51,10.78 9.08,10.78z"/>
  </g>
 </g>
</svg>
