<?xml version="1.0" encoding="UTF-8"?>
<!DOCTYPE svg PUBLIC "-//W3C//DTD SVG 1.1//EN" "http://www.w3.org/Graphics/SVG/1.1/DTD/svg11.dtd">
<!-- Creator: CorelDRAW 2017 -->
<svg xmlns="http://www.w3.org/2000/svg" xml:space="preserve" width="13.0982mm" height="13.1117mm" version="1.1" style="shape-rendering:geometricPrecision; text-rendering:geometricPrecision; image-rendering:optimizeQuality; fill-rule:evenodd; clip-rule:evenodd"
viewBox="0 0 938.85 939.81"
 xmlns:xlink="http://www.w3.org/1999/xlink">
 <defs>
  <style type="text/css">
   <![CDATA[
    .fil0 {fill:black}
   ]]>
  </style>
 </defs>
 <g id="Warstwa_x0020_1">
  <metadata id="CorelCorpID_0Corel-Layer"/>
  <g id="_1378722335584">
   <path class="fil0" d="M178.29 3.6c-90.33,7.66 -157.5,65.83 -173.44,152.73 -7.77,42.35 -3.88,264.53 -3.88,324.48 0,53.99 0,107.99 0,161.99 0,46.83 -4.39,112.61 7.43,156.74 23.58,88.01 101.17,137.05 189.55,138.8 154.06,3.07 332.37,0.41 490.41,0 52.88,-0.14 94.76,3.93 143.85,-20.33 35.64,-17.62 63.87,-44.29 82.35,-79.64 26.65,-50.97 22.9,-85.54 23.29,-140.9 0.37,-54.65 0.43,-109.69 0.23,-164.33 -0.29,-82.06 -66.62,-69.74 -84.72,-47.16 -30.63,38.24 5.38,254.7 -20.7,305.5 -25.76,50.2 -64.42,50.65 -113.76,50.43l-490.2 0.01c-50.71,-0.28 -88.92,4.94 -119.3,-44.87 -19.35,-31.71 -12.11,-112.81 -12.11,-152.08 0,-108.72 0,-217.45 0,-326.17 0,-33.09 -4.04,-134.7 4.25,-159.93 15.6,-47.49 57.26,-62.01 102.91,-61.27 53.63,0.87 108.38,0.43 162.07,0.07 40.83,-0.27 116.5,7.18 102.03,-59.87 -10.52,-48.74 -79.43,-36.44 -128.27,-36.41 -53.9,0.04 -108.38,-2.36 -161.99,2.19z"/>
   <path class="fil0" d="M773.72 97.73c-8.37,12.06 -265.12,266.22 -288.41,289.51 -28.64,28.65 -92,73.49 -49.36,116.12 42.43,42.43 86.59,-19.81 115.04,-48.27 23.25,-23.25 278.6,-281.17 290.6,-289.5 0,27.04 -1.81,153.51 1.18,169.56 9.92,53.29 79.54,55.93 92.47,7.28 6.06,-22.81 2.67,-205.1 2.67,-253.46 0,-77.4 -6.9,-87.56 -85.38,-87.56 -51.53,0 -226.66,-3.61 -253.8,2.34 -48.58,10.67 -49.74,81.76 3.61,92.43 17.43,3.48 143.5,1.55 171.39,1.55z"/>
  </g>
 </g>
</svg>
