<?xml version="1.0" encoding="UTF-8"?>
<!DOCTYPE svg PUBLIC "-//W3C//DTD SVG 1.1//EN" "http://www.w3.org/Graphics/SVG/1.1/DTD/svg11.dtd">
<!-- Creator: CorelDRAW 2017 -->
<svg xmlns="http://www.w3.org/2000/svg" xml:space="preserve" width="10.69mm" height="10.69mm" version="1.1" style="shape-rendering:geometricPrecision; text-rendering:geometricPrecision; image-rendering:optimizeQuality; fill-rule:evenodd; clip-rule:evenodd"
viewBox="0 0 257.85 257.85"
 xmlns:xlink="http://www.w3.org/1999/xlink">
 <defs>
  <style type="text/css">
   <![CDATA[
    .str0 {stroke:black;stroke-width:2.41;stroke-miterlimit:22.9256}
    .fil0 {fill:black}
   ]]>
  </style>
 </defs>
 <g id="Warstwa_x0020_1">
  <metadata id="CorelCorpID_0Corel-Layer"/>
  <path class="fil0 str0" d="M185.8 11.18c0,6.7 2.1,7.84 6.86,12.6l26.07 26.32c-26.44,0 -52.88,0 -79.32,0 -12.82,0 -26.95,-0.51 -38.94,0.47 -13.05,1.07 -19.72,1.2 -33.26,6.65 -27.31,11 -49.09,31.83 -59.44,59.8 -3.88,10.48 -6.02,20.73 -6.56,30.92l0 10.28c0.6,11.44 3.17,22.87 7.55,34.49 0.59,1.55 1.29,2.73 2,4.49l4.32 8.15c3.91,6.5 5.74,8.85 10.29,14.66 4,5.13 13.94,14.18 19.25,17.67 6.82,4.5 12.24,7.91 19.81,11.12 10.26,4.36 24.83,7.83 36.07,7.83l96.29 0c10.04,0 14.72,-16.06 3,-20.96 -4.61,-1.93 -43.13,-0.99 -49.9,-0.99 -16.22,0 -52.14,1.27 -65.53,-2.32 -25.39,-6.8 -44.86,-23.8 -54.85,-46.93 -12.12,-28.05 -6.73,-62.45 12.99,-84.59 3.95,-4.44 3.66,-4.44 8.46,-8.5 5.82,-4.92 7.81,-6.49 14.95,-10.49 23.85,-13.34 54.99,-9.82 84.48,-9.82 22.95,0 45.9,0 68.85,0l-17.59 17.83c-3.03,3.03 -5.7,5.7 -8.73,8.73 -4.87,4.87 -7.11,5.83 -7.11,12.85 0,5.85 5.08,9.98 11.48,9.98 4.6,0 6.69,-2.95 9.1,-5.36l44.65 -44.65c3.9,-3.9 5.61,-4.6 5.61,-10.85 0,-4.61 -2.95,-6.69 -5.36,-9.11l-44.65 -44.65c-3.9,-3.9 -4.6,-5.61 -10.85,-5.61 -5.16,0 -9.98,4.81 -9.98,9.98z"/>
 </g>
</svg>
