<?xml version="1.0" encoding="UTF-8"?>
<!DOCTYPE svg PUBLIC "-//W3C//DTD SVG 1.1//EN" "http://www.w3.org/Graphics/SVG/1.1/DTD/svg11.dtd">
<!-- Creator: CorelDRAW 2017 -->
<svg xmlns="http://www.w3.org/2000/svg" xml:space="preserve" width="11.1323mm" height="11.1323mm" version="1.1" style="shape-rendering:geometricPrecision; text-rendering:geometricPrecision; image-rendering:optimizeQuality; fill-rule:evenodd; clip-rule:evenodd"
viewBox="0 0 1023.57 1023.57"
 xmlns:xlink="http://www.w3.org/1999/xlink">
 <defs>
  <style type="text/css">
   <![CDATA[
    .str0 {stroke:black;stroke-width:18.39;stroke-miterlimit:22.9256}
    .fil0 {fill:black}
   ]]>
  </style>
 </defs>
 <g id="Warstwa_x0020_1">
  <metadata id="CorelCorpID_0Corel-Layer"/>
  <g id="_2304092397776">
   <path class="fil0 str0" d="M258.53 649.21c0,-28.2 26.66,-45.15 58.9,-45.15l388.72 0c31.92,0 58.9,16.78 58.9,45.15l0 306.26 -506.52 0 0 -306.26zm-60.86 5.89l0 300.37 -76.56 0c-30.88,0 -53.01,-22.12 -53.01,-53.01l0 -781.37c0,-30.88 22.12,-53.01 53.01,-53.01l76.56 0 0 237.55c0,60.74 50,109.94 106.01,109.94l353.39 0c16.16,0 31.2,-4.75 42.57,-10.45 9.58,-4.79 25.09,-14.29 32.55,-22.42l11.93 -15.55c11.9,-19.12 18.96,-37.85 18.96,-63.5l0 -235.58c30.2,0 21.53,0.91 62.34,41.72l108.96 108.96c4.58,4.59 21.1,17.93 21.1,24.05l0 659.65c0,30.88 -22.12,53.01 -53.01,53.01l-76.56 0 0 -300.37c0,-59.98 -49.29,-109.95 -104.06,-109.95l-420.13 0c-54.35,0 -104.06,49.47 -104.06,109.95zm461.37 -300.38l-357.31 0c-21.6,0 -43.2,-21.6 -43.2,-43.2l0 -243.44 443.7 0 0 241.48c0,22.47 -20.91,45.15 -43.19,45.15zm-649.84 -243.45l0 801.01c0,52.02 50.06,102.09 102.09,102.09l801.01 0c52.02,0 102.09,-50.06 102.09,-102.09l0 -685.17c0,-19.01 -29.74,-42.5 -47.61,-60.37l-136.45 -136.45c-8.81,-8.82 -17.54,-21.1 -33.86,-21.1l-685.17 0c-52.02,0 -102.09,50.06 -102.09,102.09z"/>
   <path class="fil0 str0" d="M576.58 162.33l0 96.19c0,30.57 36.48,42.1 53.95,18.62 10.81,-14.54 6.91,-77.55 6.91,-101.08 0,-61.21 -60.86,-44.58 -60.86,-13.74z"/>
  </g>
 </g>
</svg>
