<?xml version="1.0" encoding="UTF-8"?>
<!DOCTYPE svg PUBLIC "-//W3C//DTD SVG 1.1//EN" "http://www.w3.org/Graphics/SVG/1.1/DTD/svg11.dtd">
<!-- Creator: CorelDRAW 2017 -->
<svg xmlns="http://www.w3.org/2000/svg" xml:space="preserve" width="18.6105mm" height="18.6105mm" version="1.1" style="shape-rendering:geometricPrecision; text-rendering:geometricPrecision; image-rendering:optimizeQuality; fill-rule:evenodd; clip-rule:evenodd"
viewBox="0 0 291.98 291.98"
 xmlns:xlink="http://www.w3.org/1999/xlink">
 <defs>
  <style type="text/css">
   <![CDATA[
    .fil0 {fill:black}
   ]]>
  </style>
 </defs>
 <g id="Warstwa_x0020_1">
  <metadata id="CorelCorpID_0Corel-Layer"/>
  <path class="fil0" d="M-0 89.37l0 113.24c0,25.09 5.25,49.28 22.67,66.7 17.25,17.24 41.64,22.67 66.7,22.67l113.24 0c25.68,0 49.48,-5.34 67.04,-23.01 3.16,-3.18 7.37,-8.73 9.77,-12.74 2.7,-4.52 5.46,-10.1 7.19,-15.32 3.7,-11.16 5.37,-24.61 5.37,-39.66l0 -110.52c0,-22.1 -3.74,-45.06 -16.95,-61.51 -0.98,-1.21 -1.48,-1.54 -2.55,-2.91 -4.03,-5.16 -9.93,-9.69 -15.43,-13.22 -4.9,-3.14 -9.27,-5.08 -15.16,-7.35 -10.36,-4 -25.19,-5.74 -39.28,-5.74l-113.24 0c-58.63,0 -89.37,30.63 -89.37,89.37zm142.46 -59.89l0 0c7.17,0 13.03,5.86 13.03,13.03l0 106.73 62.48 37.4c6.15,3.68 8.17,11.73 4.49,17.88l-0 0c-3.68,6.15 -11.73,8.17 -17.88,4.49l-67.31 -40.29c-1.44,-0.86 -2.66,-1.97 -3.63,-3.24 -2.59,-2.39 -4.22,-5.8 -4.22,-9.58l0 -113.39c0,-7.17 5.86,-13.03 13.03,-13.03z"/>
 </g>
</svg>
