<?xml version="1.0" encoding="UTF-8"?>
<!DOCTYPE svg PUBLIC "-//W3C//DTD SVG 1.1//EN" "http://www.w3.org/Graphics/SVG/1.1/DTD/svg11.dtd">
<!-- Creator: CorelDRAW 2017 -->
<svg xmlns="http://www.w3.org/2000/svg" xml:space="preserve" width="13.9652mm" height="13.629mm" version="1.1" style="shape-rendering:geometricPrecision; text-rendering:geometricPrecision; image-rendering:optimizeQuality; fill-rule:evenodd; clip-rule:evenodd"
viewBox="0 0 358.04 349.42"
 xmlns:xlink="http://www.w3.org/1999/xlink">
 <defs>
  <style type="text/css">
   <![CDATA[
    .fil0 {fill:black}
   ]]>
  </style>
 </defs>
 <g id="Warstwa_x0020_1">
  <metadata id="CorelCorpID_0Corel-Layer"/>
  <path class="fil0" d="M38.46 323.79c-8.18,0 -13.29,-4.61 -13.29,-12.59 0,-3.59 37.35,-95.13 42.66,-108.39 1.87,-4.67 4.06,-11.17 6.29,-15.39l246.44 0.98 -24.53 11.83c-28.88,14.45 -59.97,28.48 -88.11,42.67 -3.22,1.62 -5.64,2.82 -8.86,4.43l-141.97 68.53c-4,2.02 -14.14,7.93 -18.64,7.93zm-13.29 -286.72c0,-5.2 4.7,-11.19 13.29,-11.19 4.8,0 46.88,21.34 53.61,24.71 3.22,1.61 5.64,2.83 8.85,4.44 3.23,1.62 5.86,2.56 9.1,4.19 6.08,3.06 11.07,5.7 17.45,8.42 6.13,2.62 11.66,5.92 17.74,8.84l17.49 8.38c6.17,3.09 11.8,5.55 17.95,8.62l26.34 12.82c2.96,1.49 6.14,2.7 9.1,4.19 31.8,16.05 65.47,31.31 97.44,47.32l8.86 4.43 -248.26 0 -43.46 -108.29c-1.5,-3.76 -5.49,-12.14 -5.49,-16.89zm-25.18 -1.4c0,14.43 5.64,23.88 11.59,38.76l26.77 66.94c1.72,4.29 13.09,31.77 13.09,33.47l-46.25 116.39c-3.85,9.63 -5.19,10.89 -5.19,22.08 0,22.49 23.85,43.12 50.64,33.85 3.8,-1.32 6.93,-3.18 10.44,-4.95l41.5 -20.04c3.69,-1.85 6.81,-3.05 10.5,-4.89l31 -15.16c30.47,-15.23 62.6,-29.78 93.24,-45.22l72.74 -34.96c11.97,-5.75 31.41,-13.82 39.1,-22.45 13.01,-14.6 11.72,-40.48 -3.57,-52.73 -9.11,-7.3 -23.36,-12.87 -35.07,-18.78 -3.4,-1.72 -7.08,-3.18 -10.49,-4.89 -3.46,-1.73 -6.6,-3.29 -10.26,-5.13 -3.69,-1.86 -6.8,-3.04 -10.49,-4.89 -3.68,-1.86 -6.57,-3.28 -10.26,-5.13 -3.69,-1.85 -6.82,-3.04 -10.5,-4.89 -3.65,-1.84 -6.79,-3.4 -10.25,-5.13 -57.32,-28.67 -119.01,-56.43 -176.23,-85.32 -9.34,-4.71 -24.42,-12.58 -34.27,-12.58 -19.65,0 -37.76,16.53 -37.76,35.67z"/>
 </g>
</svg>
