<?xml version="1.0" encoding="UTF-8"?>
<!DOCTYPE svg PUBLIC "-//W3C//DTD SVG 1.1//EN" "http://www.w3.org/Graphics/SVG/1.1/DTD/svg11.dtd">
<!-- Creator: CorelDRAW 2017 -->
<svg xmlns="http://www.w3.org/2000/svg" xml:space="preserve" width="10.59mm" height="10.0374mm" version="1.1" style="shape-rendering:geometricPrecision; text-rendering:geometricPrecision; image-rendering:optimizeQuality; fill-rule:evenodd; clip-rule:evenodd"
viewBox="0 0 214.56 203.36"
 xmlns:xlink="http://www.w3.org/1999/xlink">
 <defs>
  <style type="text/css">
   <![CDATA[
    .fil0 {fill:black}
   ]]>
  </style>
 </defs>
 <g id="Warstwa_x0020_1">
  <metadata id="CorelCorpID_0Corel-Layer"/>
  <path class="fil0" d="M71.55 101.48c0,-25.22 26.92,-43.41 50.35,-32.48 31.47,14.69 26.12,59.38 -6.66,67.23 -16.71,4 -33.43,-5.22 -40.42,-20.15 -1.56,-3.34 -3.27,-9.93 -3.27,-14.6zm-35.75 -73.73c0,3.22 1.09,4.73 1.79,7.15 5.28,18.11 -6.98,33.61 -23.67,35.77 -4.86,0.63 -8.3,2.82 -10.75,7.13 -3.63,6.37 -4.87,38.5 0.18,45.85 6.66,9.69 17.01,2.21 28.29,15.5 12.73,15 2.81,30.85 2.81,34.28 0,9.28 8.1,14.07 16.45,19.3 4.18,2.62 18.52,10.64 24.22,10.64 2.77,0 6.68,-1.53 8.84,-3.68 4.44,-4.42 5.42,-8.41 14.01,-11.91 12.02,-4.91 22.84,-1.49 31.34,6.98 1.31,1.31 1.66,2.09 2.88,3.37 6.89,7.22 15.34,2.99 22.17,-0.43 5.8,-2.9 20.31,-11.28 23.64,-16.58 5.41,-8.61 -1,-12.81 -1,-23.34 0,-12.41 8.23,-22.37 19.48,-26.1 5.04,-1.67 10.65,-0.75 14.84,-7.95 4.24,-7.28 4.26,-37.72 0.24,-45.21 -1.39,-2.59 -2.99,-4.2 -5.65,-5.52 -5.29,-2.64 -13.3,-1.03 -21.91,-11.61 -11.43,-14.06 -3.43,-25.09 -3.43,-33.21 0,-9.94 -19.66,-19.86 -26.96,-23.54 -7.33,-3.7 -16.65,-7.83 -23.44,-0.94 -4.07,4.13 -4.84,6.86 -13.18,10.06 -9.41,3.62 -19.13,1.68 -26.89,-4.15 -3.37,-2.53 -3.87,-4.04 -5.71,-5.91 -8.8,-8.93 -23.93,0.74 -33.56,6.46 -6.94,4.12 -15.05,9.27 -15.05,17.57z"/>
 </g>
</svg>
