<?xml version="1.0" encoding="UTF-8"?>
<!DOCTYPE svg PUBLIC "-//W3C//DTD SVG 1.1//EN" "http://www.w3.org/Graphics/SVG/1.1/DTD/svg11.dtd">
<!-- Creator: CorelDRAW 2017 -->
<svg xmlns="http://www.w3.org/2000/svg" xml:space="preserve" width="17.8921mm" height="19.2453mm" version="1.1" style="shape-rendering:geometricPrecision; text-rendering:geometricPrecision; image-rendering:optimizeQuality; fill-rule:evenodd; clip-rule:evenodd"
viewBox="0 0 634.25 682.22"
 xmlns:xlink="http://www.w3.org/1999/xlink">
 <defs>
  <style type="text/css">
   <![CDATA[
    .fil0 {fill:black}
   ]]>
  </style>
 </defs>
 <g id="Warstwa_x0020_1">
  <metadata id="CorelCorpID_0Corel-Layer"/>
  <g id="_1378722309440">
   <path class="fil0" d="M469.03 482.35c64.95,0 57.19,87.94 5.33,87.94 -14.9,0 -25.44,-2.03 -36.32,-14.31 -5.72,-6.46 -11.87,-19.4 -11.25,-30.72 0.64,-11.8 5.65,-23.09 12.54,-29.98 6.39,-6.38 17.41,-12.93 29.71,-12.93zm-118.59 74.62c0,31.32 9.02,62.84 29.62,83.64 4.62,4.66 12.14,14.64 18.34,16.3 0,-26.83 -2,-35.97 10.27,-52.36 20.73,-27.72 50.11,-22.25 84.34,-22.25 17.24,0 32.88,11.76 40.94,21.68 12.47,15.33 11.02,33.23 11.02,52.94 26.36,-17.65 46.64,-57.56 46.64,-89.27 0,-39 -9.74,-64.97 -36.31,-91.61 -78.78,-78.98 -204.87,-13.9 -204.87,80.95z"/>
   <path class="fil0" d="M125.25 570.29l-7.99 0c-34.97,0 -55.26,-47.06 -29.68,-73.65 40.91,-42.55 104.49,15.87 66,59.34 -5.52,6.24 -17.28,14.31 -28.32,14.31zm-125.25 -15.99l0 14.66c0,35.77 25.19,73.58 46.64,87.94 0,-25.08 -0.08,-37.88 11.18,-52.78 20.38,-26.96 51.31,-21.84 83.42,-21.84 17.58,0 33.97,11.55 41.91,22.05 11.29,14.93 11.39,27.64 11.39,52.57 26.47,-17.72 46.64,-59.3 46.64,-93.27 0,-33.15 -13.1,-64.48 -34.96,-86.29 -41.63,-41.53 -103.64,-48.58 -153.45,-15.52 -29.88,19.83 -52.76,56.57 -52.76,92.48z"/>
   <path class="fil0" d="M251.83 86.61c0,-27.68 17.92,-46.64 45.3,-46.64 21.93,0 42.64,19.49 42.64,41.3 0,14.9 -2.03,25.44 -14.32,36.32 -28.99,25.67 -73.63,4.23 -73.63,-30.99zm34.11 -86.61l19.9 0c21.59,1.85 43.93,9.87 65.37,25.85 39.17,29.2 55.88,90.28 37.87,135.4 -5.93,14.85 -26.99,49.8 -40,53.27 0,-25.89 1.17,-39.31 -11.66,-53.63 -22.68,-25.34 -44.91,-20.98 -78.95,-20.98 -28.11,0 -49.08,19.12 -54.98,43.63 -1.7,7.08 -0.99,21.46 -0.99,30.99 -5.98,-1.6 -13.28,-11.07 -17.69,-15.63 -4.46,-4.62 -10.68,-13.47 -13.86,-19.45 -13.8,-25.87 -15.09,-38.48 -15.09,-66.19 0,-56.23 49.79,-108.02 110.06,-113.26z"/>
   <path class="fil0" d="M286.48 275.82l0 57.3 -167.89 0c-4.32,0 -8,5.79 -8,10.66l0 58.63c0,14.42 19.99,14.42 19.99,0l0 -50.63 330.45 0 0 47.97c0,19.95 19.99,14.42 19.99,5.33l0 -63.96c0,-3.2 -4.79,-7.99 -7.99,-7.99l-167.89 0 0 -55.96c0,-14.43 -18.66,-10.13 -18.66,-1.33z"/>
   <path class="fil0" d="M566.29 329.12l-1.38 41.26c-0.52,7.97 -2.62,14.23 -2.62,22.7l-2.67 0c-2.13,-9.17 -12.77,-31.86 -17.12,-42.84 -3.45,-8.71 -3.8,-10.46 -13.53,-10.46 -15.22,0 0.64,29.54 1.91,32.73l19.44 47.18c10.75,24.36 12.35,21.34 34.29,1.05l33.31 -33.32c4.52,-3.98 16.31,-11.37 16.31,-18.33 0,-5.7 -4.11,-10.66 -9.33,-10.66 -10.25,0 -26.78,25.8 -43.97,37.31 0.67,-8.02 2.97,-18.75 3.8,-26.85 6.66,-64.6 -8.57,-124.52 -37.89,-169.58 -11.03,-16.95 -26.77,-34.9 -42.05,-47.23 -11.66,-9.41 -45.41,-34.83 -55.78,-34.83 -8.68,0 -18.53,11.73 0.43,20.89 9.17,4.43 19.83,10.95 27.55,16.42 16.82,11.91 32.15,26.4 44.74,43.2 27.05,36.12 44.54,82.88 44.54,131.35z"/>
   <path class="fil0" d="M49.3 122.58c0,12.69 12.92,10.61 25.36,10.62l34.6 1.38c-1.47,1.27 0.49,-0.22 -2.19,1.8l-8.47 6.19c-3.89,2.92 -6.59,4.76 -10.33,8.33l-20.01 18.62c-24.21,24.47 -45.39,66.21 -53.9,99.34 -2.25,8.76 -5.35,22.34 -6.26,32.38 -2.31,25.45 -4.43,42.41 -0.69,68.42 0.82,5.68 1.16,10.65 1.83,15.49 1.28,9.31 6.77,38.88 9.56,45.08 4.28,9.54 18.51,8.24 18.51,-3.86 0,-5.49 -12,-40.32 -12,-94.6 0,-56.38 22.52,-113.85 58.3,-149.57 11.39,-11.37 22.71,-23.74 37.64,-31.64l-13.77 32.86c-5.19,11.11 -16.69,29.76 3.11,29.76 7.09,0 19.13,-31.85 23.03,-40.92 2.63,-6.11 19.61,-42.92 19.61,-45.69 0,-15.03 -32.78,-8.4 -51.41,-11.22 -9.91,-1.5 -20.55,-0.02 -30.44,-1.54 -10.38,-1.6 -22.08,-1.06 -22.08,8.77z"/>
   <path class="fil0" d="M239.84 198.54l0 25.31c0,9.04 42.91,17.32 55.96,17.32 9.41,0 22.87,-2.68 31.2,-4.77 31.68,-7.99 24.76,-8.87 24.76,-40.53 0,-23.36 -19.04,-38.64 -42.64,-38.64 -26.08,0 -69.29,-4.16 -69.29,41.31z"/>
   <path class="fil0" d="M415.73 634.25l0 31.98c0,8.23 37.58,15.99 49.3,15.99 45.27,0 38.41,-6.66 61.29,-11.99 0,-13.99 2.24,-40.05 -3.75,-50.88 -13.35,-24.17 -42.51,-19.74 -68.2,-19.74 -19.08,0 -38.64,15.74 -38.64,34.64z"/>
   <path class="fil0" d="M65.29 632.92l0 33.31c0,10.79 43.7,15.99 61.29,15.99 11.86,0 49.3,-7.67 49.3,-15.99l0 -30.65c0,-20.47 -18.29,-35.98 -38.64,-35.98l-33.31 0c-18.85,0 -38.64,15.16 -38.64,33.31z"/>
   <path class="fil0" d="M269.16 85.28c0,32.48 53.3,35.32 53.3,-1.33 0,-33.97 -53.3,-35.39 -53.3,1.33z"/>
   <path class="fil0" d="M445.04 524.99c0,37.28 51.07,35.99 52.95,2.39 1.22,-21.77 -26.12,-37.53 -44.61,-20.71 -4.09,3.72 -8.34,10.86 -8.34,18.31z"/>
   <path class="fil0" d="M118.59 552.97c16.69,0 27.98,-12.33 27.98,-22.65 0,-9.22 0.5,-15.47 -8.26,-23.72 -23.58,-22.23 -60.06,12.02 -37.41,37.41 3.66,4.1 10.58,8.96 17.69,8.96z"/>
  </g>
 </g>
</svg>
