<?xml version="1.0" encoding="UTF-8"?>
<!DOCTYPE svg PUBLIC "-//W3C//DTD SVG 1.1//EN" "http://www.w3.org/Graphics/SVG/1.1/DTD/svg11.dtd">
<!-- Creator: CorelDRAW 2017 -->
<svg xmlns="http://www.w3.org/2000/svg" xml:space="preserve" width="19.775mm" height="19.8462mm" version="1.1" style="shape-rendering:geometricPrecision; text-rendering:geometricPrecision; image-rendering:optimizeQuality; fill-rule:evenodd; clip-rule:evenodd"
viewBox="0 0 477.37 479.09"
 xmlns:xlink="http://www.w3.org/1999/xlink">
 <defs>
  <style type="text/css">
   <![CDATA[
    .fil0 {fill:black}
   ]]>
  </style>
 </defs>
 <g id="Warstwa_x0020_1">
  <metadata id="CorelCorpID_0Corel-Layer"/>
  <g id="_1378951932448">
   <path class="fil0" d="M316.27 431.37c0,-9.15 4.7,-11.7 11.93,-18.95 2.85,-2.85 4,-4.15 7.33,-6.7l17.37 -17.26c1.57,-1.24 2.39,-2.17 3.85,-3.64l63.13 -63.19c12.06,-12.4 22.24,3.2 33.74,14.5 11.65,11.46 -0.91,20.09 -7.04,26.23 -9.72,9.72 -92.48,93.47 -95.69,95.21 -5.62,3.04 -11.19,1.48 -15.23,-2.54 -3.84,-3.83 -6.91,-6.98 -10.73,-10.8 -3.16,-3.16 -8.65,-7.23 -8.65,-12.87zm-215.22 -185.27c0,-13.76 13.76,-16.11 20.77,-11.41 31.21,20.89 8.06,41.87 -6.64,30.97 -2.33,-1.73 -3.84,-3.16 -5.95,-5.28 -3.77,-3.79 -8.18,-7.11 -8.18,-14.28zm29.01 -62.69c10.65,0 15.28,8.26 23.63,16.61 4.71,4.71 16.61,13.91 16.61,21.76 0,9.15 -5.96,14.04 -14.97,14.04 -6.88,0 -22.6,-18.39 -27.84,-23.63 -4.19,-4.19 -10.33,-8.21 -10.33,-15.67 0,-7.31 5.06,-13.1 12.91,-13.1zm12.16 -26.2c0,-11 3.97,-14.97 14.97,-14.97 6.71,0 20.09,15.88 25.03,20.82 3.97,3.97 7.26,7.26 11.23,11.23 6.61,6.61 9.59,7.39 9.59,16.61 0,6.25 -6.65,12.16 -13.1,12.16 -9.09,0 -17.6,-11.52 -26.44,-20.35 -5.04,-5.04 -21.29,-18.73 -21.29,-25.5zm133.81 -0.93c0,2.59 1.64,5.87 3.05,7.25 13.4,13.07 22.81,-22.07 39.64,-11.58 2.84,1.77 6.91,6.85 6.91,10.88 0,8.47 -6.89,12.97 -11.46,17.54 -8.99,8.99 -12.86,9.57 -12.86,19.88 0,3.23 5.89,7.49 9.36,7.49 6.51,0 13.65,-11.97 19.68,-14.96 8.5,-4.21 19.62,0.46 19.62,13.09 0,10.12 -23.39,21.78 -23.39,31.81 0,6.16 5.27,9.36 12.17,9.36 4.69,0 11.92,-11.6 17.22,-13.68 8.1,-3.17 18.33,0.26 18.33,14.61 0,11.55 -27.14,23.33 -27.14,36.49 0,5.99 4.57,8.42 10.29,8.42 5.5,0 8.16,-5.74 12.16,-8.42l29.72 29.23 -86.57 87.03 -30.4 -30.89c4.75,-3.26 5.95,-4.54 9.81,-8.41 4.77,-4.77 7.25,-5.31 7.25,-12.4 0,-5.99 -4.57,-8.42 -10.29,-8.42 -8.79,0 -12.22,16.84 -30.88,16.84 -27.22,0 -47.79,-5.22 -62.01,9.11l-33.44 33 -86.32 -85.85 30.41 -29.94c19.25,9.67 38.36,2.63 46.59,-14.23 6.02,-12.32 -1.73,-12.9 9.39,-14.94 15.31,-2.8 26.73,-16.77 27.07,-31.88 17.57,-0.39 32.75,-14.81 32.75,-32.75 10.25,-0.85 17.64,-4.48 23.31,-10.38 0.19,-0.2 0.71,-0.77 0.89,-0.98 10.45,-11.61 11.02,-25.65 3.87,-39.17 15.95,-10.68 24.59,-31.88 37.76,-30.21 10.4,1.32 11.83,8.01 11.83,15.24 0,10.38 -24.33,22.83 -24.33,31.81zm-109.48 -42.11c0,-12.57 18.56,-18.45 22.17,-8.13 6.12,17.5 24.27,35.34 41.5,41.78 5.55,2.07 5.57,3.13 5.57,10.33 0,6.25 -6.65,12.16 -13.1,12.16 -8.82,0 -23.29,-17.21 -31.11,-25.03 -8.86,-8.86 -25.03,-21.88 -25.03,-31.11zm39.3 -17.78c12.87,0 39.69,5.46 52.4,8.42l-23.16 23.62c-3.91,-1.09 -7.23,-3.34 -9.8,-5.63 -6.64,-5.89 -13.61,-11.84 -17.28,-20.15 -1.15,-2.61 -1.1,-4.08 -2.15,-6.27zm-24.33 -14.97c-20.82,0 -34.62,15.62 -34.62,31.81 0,4.74 0.94,5.1 0.94,10.29 -11.39,0.95 -25.26,15.81 -25.26,29.94 0,8.68 0.51,6.12 0.94,11.23 -11.62,0.97 -25.26,14.82 -25.26,29.01 0,18.35 2.52,12.26 4.68,21.52 -14.5,3.38 -27.96,25.26 -18.13,45.27 2.11,4.3 4.55,6.42 6.9,9.94l-30.17 30.66c-4.32,-0.84 -7.17,-2.59 -12.88,-2.59 -15.89,0 -22.1,8.53 -30.18,16.61 -12.2,12.21 -18.48,15.07 -18.48,33.92 0,17.16 30.03,43.98 37.43,43.98 7.09,0 8.42,-7.06 8.42,-12.16 0,-6.74 -24.98,-22.2 -26.67,-32.32 -1.38,-8.31 6.19,-13.17 10.53,-17.51 15.78,-15.78 18.63,-18.36 35.09,-1.87 4.91,4.91 9.13,9.13 14.04,14.04 9.59,9.59 18.48,18.49 28.07,28.07l48.65 49.6c4.59,4.88 5.39,3.54 5.39,11.45 0,6.36 -8.64,12.85 -12.4,16.61 -5.41,5.4 -9.2,11.86 -17.89,10.8 -6.3,-0.77 -10.45,-6.86 -16.73,-13.14 -10.97,-10.97 -10.46,-13.33 -20.35,-13.33 -3.24,0 -7.49,5.08 -7.49,8.42 0,6.19 4.4,8.62 7.72,11.93 17.8,17.79 20.35,25.5 41.87,25.5 12.21,0 20.92,-11.1 27.84,-18.01 9.22,-9.22 17.08,-14.26 17.08,-30.64 0,-6.52 -2.42,-11.64 -4.68,-15.91 2.48,-3.71 32.28,-34.32 38.03,-36.83 5.55,-2.41 16.14,-2.06 23.18,-1 6.37,0.96 19.94,-0.68 24.64,0.62 4.54,1.25 29.6,31.18 38.59,37.2 -1.62,6.94 -3.74,6.38 -3.74,16.84 0,14.34 9.65,21.35 17.08,28.77 12.06,12.06 14.81,18.01 33.45,18.01 15.7,0 28.33,-16.63 38.13,-26.43l81.42 -81.39c12.06,-12.17 14.52,-30.97 4.12,-43.93 -3.07,-3.82 -7.96,-8.1 -11.62,-11.77 -7.37,-7.37 -15.4,-17.08 -29.71,-17.08 -7.58,0 -10.57,2.5 -15.91,3.74l-30.17 -30.66c2.55,-3.71 4.56,-5.16 6.8,-9.55 6.09,-11.9 4.95,-26.79 -3.99,-36.31 -3.99,-4.25 -10,-10.34 -17.56,-10.51 1.3,-10.95 1.82,-20.42 -6.81,-30.62 -3.88,-4.58 -10.62,-10.38 -18.45,-10.55 4.76,-20.43 -7.87,-39.8 -24.33,-41.17 0.98,-11.79 3.79,-23.75 -12.53,-36.13 -9.44,-7.16 -18.38,-5.1 -30.74,-7.62 -11.07,-2.26 -21.23,-3.96 -32.28,-6.09 -15.11,-2.92 -37.94,-9.84 -49.45,-1.18 -3.01,2.27 -1.74,2.35 -5.2,1.69 -3.84,-0.73 -2.46,-1.21 -7.35,-1.21z"/>
   <path class="fil0" d="M355.57 56.14c6.73,0 17.15,-12.94 24.09,-19.88 3.97,-3.97 7.26,-7.26 11.23,-11.23 5.33,-5.33 12.9,-10.15 7.72,-18.48 -1.01,-1.63 -3.16,-3 -4.9,-3.6 -8.79,-3.04 -17.07,9.19 -26.68,18.81 -8.23,8.23 -21.98,18.72 -20.33,26.35 0.89,4.1 4.87,8.04 8.87,8.04z"/>
   <path class="fil0" d="M118.83 56.14c5.01,0 10.29,-4.8 10.29,-9.36 0,-6.86 -15.04,-19.25 -22.22,-26.43 -4.28,-4.28 -7.92,-7.85 -12.16,-12.17 -3.86,-3.93 -9.51,-9.19 -16,-3.37 -5.81,5.2 -3.77,10.86 1,15.57l24.82 24.77c3.02,3.01 9.45,10.99 14.27,10.99z"/>
   <path class="fil0" d="M228.31 8.42l0 43.98c0,11.3 18.72,11.3 18.72,0l0 -43.98c0,-5.2 -3.96,-8.01 -8.24,-8.42l-2.24 0c-4.28,0.42 -8.24,3.22 -8.24,8.42z"/>
   <path class="fil0" d="M309.72 320.02c0,1.46 1.73,5.72 2.59,6.77 4.56,5.55 17.06,3.41 17.06,-6.77 0,-12.33 -19.65,-12.01 -19.65,0z"/>
   <path class="fil0" d="M55.21 410.78c0,14.85 18.72,14.85 18.72,0 0,-11.09 -18.72,-11.09 -18.72,0z"/>
  </g>
 </g>
</svg>
