<?xml version="1.0" encoding="UTF-8"?>
<!DOCTYPE svg PUBLIC "-//W3C//DTD SVG 1.1//EN" "http://www.w3.org/Graphics/SVG/1.1/DTD/svg11.dtd">
<!-- Creator: CorelDRAW 2017 -->
<svg xmlns="http://www.w3.org/2000/svg" xml:space="preserve" width="20.4096mm" height="18.1454mm" version="1.1" style="shape-rendering:geometricPrecision; text-rendering:geometricPrecision; image-rendering:optimizeQuality; fill-rule:evenodd; clip-rule:evenodd"
viewBox="0 0 481.96 428.5"
 xmlns:xlink="http://www.w3.org/1999/xlink">
 <defs>
  <style type="text/css">
   <![CDATA[
    .fil0 {fill:black}
   ]]>
  </style>
 </defs>
 <g id="Warstwa_x0020_1">
  <metadata id="CorelCorpID_0Corel-Layer"/>
  <g id="_1380820912416">
   <path class="fil0" d="M115.52 312.16c0,-13.6 12.9,-36.71 20.1,-43.89 9.22,-9.19 25.66,-21.65 42.92,-22.03l18.54 51.26c4.7,10 16.26,0.68 21.98,-2.98 7.11,-4.54 14.15,-9.48 21.52,-13.38 3.51,0.94 17.42,10.49 21.75,13.15 20.17,12.4 19.74,12.84 31.45,-22 2.32,-6.91 6.78,-20.32 9.82,-26.05 49.85,1.11 79.4,76.58 53.32,76.58l-230.72 0c-5.67,0 -10.66,-5 -10.66,-10.66zm78.99 -68.64l5.5 -1.69c4.16,2.45 27.84,25.5 28.94,29.62l-19.44 11.55 -14.99 -39.47zm79.26 38.68l-19.41 -12.07 23.28 -23.67c5.47,-5.63 2.88,-4.27 10.44,-4.1l-14.31 39.84zm-62.28 -63.1c19.39,12.99 40.71,12.99 60.11,0 0,8.31 1.49,9.93 -3.08,14.37 -6.06,5.88 -23.07,23.74 -26.97,26.35 -4.4,-2.94 -20.07,-19.8 -26.46,-25.88 -5.17,-4.92 -3.59,-5.63 -3.59,-14.83zm-20.36 -53.32c0,-2.63 10.62,-25.99 13.17,-30.45 2.66,-4.64 4.42,-3.32 10.17,-4.37l50.34 -8.8c4.39,8.31 7.84,14.66 12.54,22.36 1.38,2.26 14.6,21.22 14.6,21.26 0,7.55 -22.66,47.5 -48.47,47.5 -17.99,0 -23.24,-5.31 -35.16,-17.19 -3.92,-3.91 -17.19,-24.45 -17.19,-30.31zm-8.72 -23.27c-2.52,-16.95 -2.19,-10.38 -1.94,-26.17 0,-15.37 9.89,-30.87 18.51,-37.71 11.76,-9.33 26.65,-18.51 43.53,-18.51 38.27,0 60.14,23.38 58.17,61.07l-2.55 24.28c-24.89,-27.09 -15.9,-42.93 -30.7,-41.1l-62.99 10.73c-9.54,1.92 -10.66,2.13 -13.43,10.81 -1.4,4.39 -5.33,14.21 -8.6,16.6zm-18.42 -25.21c0,29.86 2.77,27.54 11.27,52.71 2.62,7.76 4.87,12.03 8.44,18.7 11.93,22.33 11.31,2.55 11.31,36.19 0,4.1 -11.81,5.38 -16.3,6 -6.28,0.85 -12.34,2.06 -18.26,4.04 -21.53,7.18 -38.92,22.01 -49.14,41.98 -3.58,7 -11.3,24.83 -11.3,34.27 0,13.9 10.9,27.14 24.24,27.14l232.66 0c13.83,0 25.21,-10.61 25.21,-27.14 0,-20.26 -18.31,-49.81 -29.92,-59.27 -12.96,-10.57 -28.27,-18.71 -45.98,-20.91 -9.67,-1.2 -11.5,-2.39 -19.11,-4.16 0,-16.73 -2.08,-19.21 4.43,-27.56 4.98,-6.39 8.71,-13.42 12.05,-20.92 9.25,-20.8 11.64,-44.15 11.64,-67.85 0,-41.31 -35.06,-68.35 -77.6,-65.01 -37.53,2.95 -73.63,32.58 -73.63,71.8z"/>
   <path class="fil0" d="M25.36 182.26l0 0zm0 0c0,14.74 -3.81,31.98 -1.66,49.16 5.61,44.59 14.48,76.75 40.85,113.29 14.25,19.75 31.49,37.31 51.54,51.22 9.24,6.41 22.16,14.58 32.52,18.86 6.01,2.48 32.57,13.93 38.48,13.49 7.23,-0.55 10.37,-9.03 4.27,-13.57 -2.22,-1.66 -15.29,-5.58 -19.26,-6.93 -59.2,-20.16 -107.26,-73.05 -124.56,-133.31 -3.51,-12.24 -7.38,-28.25 -7.64,-43.74 -0.16,-9.49 -0.86,-14.37 -0.09,-24.32 0.66,-8.58 2.03,-16.5 2.03,-24.15 4.15,2.78 17.6,30.48 25.32,15.53 3.43,-6.64 -10.04,-21.99 -16.17,-30.49 -13.69,-18.98 -9.4,-15.41 -41.52,6.82 -3.78,2.62 -12.58,7.28 -8.34,13.96 5.41,12.35 18.22,-4.21 24.24,-5.82z"/>
   <path class="fil0" d="M85.47 68.84c0,6.58 4.65,7.76 9.69,7.76 0.95,0 24.84,-20.37 28.38,-23 53.73,-39.94 126.28,-48.57 191.27,-24.09 12.95,4.88 48.83,23.78 54.71,32.55 -10.32,0 -26.17,-1.13 -26.17,8.73 0,11.51 19.97,6.72 31.03,6.79 19.28,0.12 23.07,1.1 22.31,-18.45 -0.34,-8.71 0.59,-31.06 -5.51,-34.33 -4.73,-2.54 -10.39,0.01 -11.35,5.72 -0.52,3.08 0.36,13.53 0.36,18.94 -1.51,-0.4 -22.91,-15.99 -27.68,-18.85 -62.37,-37.35 -137.65,-40.33 -203.69,-9.91 -12.99,5.99 -23.42,12.84 -34.64,20.62 -5.24,3.63 -28.7,21.98 -28.7,27.53z"/>
   <path class="fil0" d="M421.86 202.62c7.79,0 12.71,-15.56 18.42,-19.39 1.8,16.79 3.45,23.55 2.91,39.75 0,54.25 -23.92,97.57 -49.13,127.3 -22.7,26.77 -58.54,51.5 -93.16,60.98 -23.72,6.5 -8.44,17.24 -5.06,17.24 14.11,0 56.83,-22.87 70.39,-32.37 41.1,-28.81 71.25,-71.34 85.27,-121.21 6.98,-24.83 7.96,-42.77 7.19,-68.41 -0.27,-9.2 -1.93,-16.29 -1.93,-24.25 5.22,3.49 12.42,10.66 18.42,10.66 5.52,0 6.78,-3.03 6.78,-7.76 0,-6 -12.49,-12.87 -17.07,-15.89 -21.97,-14.56 -20.26,-19.28 -31.68,-3.77l-17.73 25.02c-2.98,5.53 1.2,12.1 6.37,12.1z"/>
  </g>
 </g>
</svg>
