<?xml version="1.0" encoding="UTF-8"?>
<!DOCTYPE svg PUBLIC "-//W3C//DTD SVG 1.1//EN" "http://www.w3.org/Graphics/SVG/1.1/DTD/svg11.dtd">
<!-- Creator: CorelDRAW 2017 -->
<svg xmlns="http://www.w3.org/2000/svg" xml:space="preserve" width="73.7786mm" height="55.4988mm" version="1.1" style="shape-rendering:geometricPrecision; text-rendering:geometricPrecision; image-rendering:optimizeQuality; fill-rule:evenodd; clip-rule:evenodd"
viewBox="0 0 1626.36 1223.41"
 xmlns:xlink="http://www.w3.org/1999/xlink">
 <defs>
  <style type="text/css">
   <![CDATA[
    .str0 {stroke:#898989;stroke-width:1.68;stroke-miterlimit:22.9256}
    .fil0 {fill:#9D9E9E}
   ]]>
  </style>
 </defs>
 <g id="Warstwa_x0020_1">
  <metadata id="CorelCorpID_0Corel-Layer"/>
  <g id="_2749010275648">
   <path class="fil0 str0" d="M625.47 677.76c0,-50.99 20.13,-79.33 24.29,-97.16 15.95,4.26 117.09,111.88 131,125.79 13.61,13.61 121.59,115.24 125.79,131 -38.19,8.9 -80.22,45.15 -167.63,8l-43.27 -26.13c-5.91,-4.86 -8.54,-5.94 -13.68,-10.61 -5.17,-4.7 -15.39,-18.16 -20.39,-24.73 -18.88,-24.84 -36.11,-74.91 -36.11,-106.16zm-543.17 -3.47c47.07,-58.96 107.17,-114.5 168.28,-166.62 25.81,-22.01 163.69,-126.97 198.55,-135.43l152.81 151.57c-4.47,15.8 -13.07,23.59 -20.81,40.11 -74.65,159.35 25.53,344.47 202.72,365.17 100.69,11.76 148.06,-35.65 179.47,-44.05 12.45,18.15 48.43,50.62 66.24,68.77 16.34,16.64 55.22,51.07 64.46,68.74 -217.65,85.66 -393.44,82.51 -599.45,-19.59 -144.67,-71.69 -315.69,-207.98 -412.28,-328.67zm85.11 -600.33c0,24.54 5.63,24.92 21.68,40.78 10.73,10.6 18.83,18.81 29.51,29.49l174.38 176.11c-70.21,47.01 -176.53,114.67 -238.6,177.82 -22.48,22.87 -39.08,34.27 -71.18,67.63 -17.97,18.67 -82.34,87.04 -82.34,105.04 0,34.15 44.27,65.75 67.4,95.7 52.76,68.32 228.74,205.53 300.24,248.04 146.71,87.23 273.19,138.61 458.26,138.61 113.57,0 244.95,-40.5 319.25,-79.81 39.68,26.57 135.03,149.21 163.1,149.21 27.03,0 38.17,-11.13 38.17,-38.17 0,-19.6 -44.8,-56.94 -65.07,-77.21l-1034.1 -1034.1c-18.66,-18.66 -22.06,-30.36 -49.45,-30.36 -17.15,0 -31.23,14.08 -31.23,31.23z"/>
   <path class="fil0 str0" d="M778.15 32.31l0 163.1c-34.34,0 -83.97,9.53 -115.98,15.89 -17.7,3.52 -63.93,12.74 -75.35,25.29 -22.27,24.49 -0.07,59.46 21.29,59.46 23.13,0 44.87,-10.1 68.51,-14.77 21.76,-4.3 49.81,-9.99 74.29,-12.47 231.86,-23.5 445.08,94.4 617.66,234.95l173.01 170.53c-8.96,13.38 -18.55,23.86 -30.36,35.57l-104.97 103.23c-12.54,9.58 -23.81,20.96 -37.37,32.03l-78.15 60.66c-21.36,15.82 -47.39,38.02 -15.8,66.43 26.26,23.62 52.99,-4.27 85.26,-28.2 16.77,-12.44 32.48,-24.79 48.46,-38.29 48.24,-40.77 96.1,-81.71 139.05,-128.15l41 -45.75c47.01,-60.78 51.68,-50.43 -1.49,-117.04l-91.57 -95.82c-9.45,-8.74 -14.7,-10.92 -24.38,-20.73l-76.52 -65.75c-17.92,-14.51 -33.85,-27.45 -53.04,-40.66 -38.47,-26.48 -74.53,-53.05 -115.91,-74.95 8.69,-32.57 72.87,-52.88 72.87,-97.16 0,-22.2 -16.95,-31.23 -38.17,-31.23 -27.21,0 -71.03,68.08 -104.1,90.22l-68.9 -28.26c-63.44,-25.53 -166.25,-51.55 -239.94,-51.55l0 -163.1c0,-47.28 -69.4,-44.73 -69.4,-3.47z"/>
   <path class="fil0 str0" d="M771.21 448.73c0,21.32 10.4,34.13 28.52,37.41 14.25,2.58 25.08,-0.98 59.06,6.87 64.38,14.88 114.86,67.03 133.13,130.6 5.23,18.19 7.11,36.95 8.26,57.67 2.89,51.88 69.46,40.72 69.46,3.41 0,-53.05 -3.43,-72.6 -23.26,-119.01 -11.91,-27.89 -30.53,-51.08 -50.48,-70.98 -85.25,-85.03 -224.69,-101.97 -224.69,-45.98z"/>
  </g>
 </g>
</svg>
