<?xml version="1.0" encoding="UTF-8"?>
<!DOCTYPE svg PUBLIC "-//W3C//DTD SVG 1.1//EN" "http://www.w3.org/Graphics/SVG/1.1/DTD/svg11.dtd">
<!-- Creator: CorelDRAW 2017 -->
<svg xmlns="http://www.w3.org/2000/svg" xml:space="preserve" width="18.6105mm" height="18.6105mm" version="1.1" style="shape-rendering:geometricPrecision; text-rendering:geometricPrecision; image-rendering:optimizeQuality; fill-rule:evenodd; clip-rule:evenodd"
viewBox="0 0 1101.74 1101.74"
 xmlns:xlink="http://www.w3.org/1999/xlink">
 <defs>
  <style type="text/css">
   <![CDATA[
    .fil0 {fill:black}
   ]]>
  </style>
 </defs>
 <g id="Warstwa_x0020_1">
  <metadata id="CorelCorpID_0Corel-Layer"/>
  <path class="fil0" d="M527.7 767.09c0,-27.3 19.84,-43.76 36.03,-43.76l293.45 0c50.27,0 53.4,79.8 0,79.8l-293.45 0c-17.01,0 -36.03,-19.01 -36.03,-36.04zm-239.4 77.23c-27.04,0 -34.35,-15.04 -49.55,-30.24 -26.53,-26.53 -32.82,-24.89 -32.82,-57.28 0,-18.29 19.49,-33.47 38.62,-33.47 23.23,0 30.59,14.36 43.75,23.17 8.04,-12 66.11,-67.19 84.29,-85.6 41.32,-41.86 77.88,-11.61 77.88,23.82 0,22.03 -56.23,70.39 -72.73,86.88 -13.92,13.92 -25.97,25.97 -39.89,39.89 -12.58,12.59 -26.34,32.82 -49.56,32.82zm239.4 -465.91c0,-19.13 15.17,-38.62 33.47,-38.62l301.17 0c43.68,0 48.27,79.8 -7.72,79.8l-285.73 0c-23.27,0 -41.19,-17.92 -41.19,-41.18zm-239.4 82.37c-23.17,0 -37.19,-17.88 -49.55,-30.25 -20.82,-20.83 -32.82,-25.07 -32.82,-57.27 0,-32.18 52.27,-51.42 79.8,-10.3 31.04,-20.78 93.41,-105.54 118.41,-105.54 25.83,0 46.34,9.61 46.34,38.61 0,23.83 -18.77,35.5 -31.54,48.27l-82.37 82.37c-11.72,11.72 -27.43,34.11 -48.27,34.11zm-288.3 -123.56l0 427.31c0,94.67 19.81,185.93 85.54,251.67 65.07,65.07 157.12,85.54 251.67,85.54l427.31 0c96.89,0 186.7,-20.15 252.96,-86.83 11.92,-12.01 27.81,-32.94 36.86,-48.08 10.2,-17.07 20.59,-38.11 27.12,-57.82 13.96,-42.1 20.27,-92.85 20.27,-149.63l0 -417.01c0,-83.4 -14.11,-170.04 -63.94,-232.09 -3.68,-4.58 -5.57,-5.81 -9.61,-10.98 -15.22,-19.46 -37.47,-36.56 -58.22,-49.89 -18.48,-11.86 -34.98,-19.16 -57.21,-27.74 -39.1,-15.08 -95.07,-21.67 -148.23,-21.67l-427.31 0c-221.23,0 -337.21,115.58 -337.21,337.21z"/>
 </g>
</svg>
