<?xml version="1.0" encoding="UTF-8"?>
<!DOCTYPE svg PUBLIC "-//W3C//DTD SVG 1.1//EN" "http://www.w3.org/Graphics/SVG/1.1/DTD/svg11.dtd">
<!-- Creator: CorelDRAW 2017 -->
<svg xmlns="http://www.w3.org/2000/svg" xml:space="preserve" width="12.0482mm" height="12.0482mm" version="1.1" style="shape-rendering:geometricPrecision; text-rendering:geometricPrecision; image-rendering:optimizeQuality; fill-rule:evenodd; clip-rule:evenodd"
viewBox="0 0 277.71 277.71"
 xmlns:xlink="http://www.w3.org/1999/xlink">
 <defs>
  <style type="text/css">
   <![CDATA[
    .fil0 {fill:black}
   ]]>
  </style>
 </defs>
 <g id="Warstwa_x0020_1">
  <metadata id="CorelCorpID_0Corel-Layer"/>
  <g id="_2749012487600">
   <path class="fil0" d="M41.76 11.93l0 15.73 -28.75 0c-5.8,0 -13.02,5.76 -13.02,13.56l0 195.27c0,7.57 6.49,13.54 14.08,13.59l84.64 -0.03c-9.8,-18.52 -15.19,-34.38 -15.19,-56.95 0,-11.54 2.26,-24.56 6.04,-34.64 1.3,-3.46 2.36,-6.61 4.08,-10.02 1.58,-3.15 2.81,-6.17 4.54,-9.02l5.24 -8.32c2.09,-2.82 3.72,-4.94 5.96,-7.6 4.76,-5.66 8.03,-9.19 13.8,-13.86 1.38,-1.11 1.98,-1.77 3.56,-2.95 1.5,-1.11 2.59,-1.95 4.02,-3.03l8.29 -5.27c15.5,-9.63 37.05,-14.87 55.64,-14.87 19.8,0 39.79,6.2 55.1,15.41 1.45,0.87 2.14,1.43 3.65,2.32 4.01,2.36 7.61,5.6 10.67,7.22 0,-8.55 0.71,-63.67 -0.56,-69.41 -0.68,-3.1 -2.38,-5.58 -4.44,-7.49 -5.97,-5.52 -12.97,-3.92 -23.2,-3.92 0,-9.25 1.61,-19.24 -3.94,-24.27 -2.23,-2.01 -5.33,-3.16 -8.57,-3.4l-2.42 0c-6.49,0.46 -12.74,4.65 -12.74,13.02l0 14.64 -138.86 0 0 -14.64c0,-8.48 -6.2,-12.63 -12.74,-13.02l-2.02 0c-6.59,0.38 -12.91,4.55 -12.91,11.93z"/>
   <path class="fil0" d="M180.62 194.18l0 -41.22c0,-17.93 27.66,-20.57 27.66,2.17l0 25.49c11.59,0 27.66,-2.43 27.66,14.1 0,9.37 -6.9,13.56 -16.27,13.56l-22.78 0c-5,0 -9.14,-0.88 -11.82,-3.37 -2.65,-2.45 -4.45,-5.85 -4.45,-10.73zm97.09 -3.78l0 8.61c-0.55,10.62 -3.17,21.19 -7.95,31.15 -8.22,17.13 -22.48,31.38 -39.6,39.6 -13.89,6.66 -24.2,7.95 -39.78,7.95 -15.24,0 -32.91,-7.21 -44.25,-15.42 -6.1,-4.41 -4.49,-3.74 -7.98,-6.66 -5.14,-4.3 -7.69,-7.78 -11.77,-13.18 -2.83,-3.74 -4.95,-7.77 -7.23,-12.29 -7.41,-14.74 -7.95,-25.38 -7.95,-41.4 0,-9.7 4.15,-22.41 8.32,-30.74 9.01,-17.99 20.95,-29.7 38.87,-38.69 14.87,-7.46 24.75,-8.14 40.68,-8.14 14.85,0 33.24,7.52 44.01,15.65l10.64 8.88 9.02 11.05c9.07,13.12 14.16,28.25 14.97,43.63z"/>
  </g>
 </g>
</svg>
