<?xml version="1.0" encoding="UTF-8"?>
<!DOCTYPE svg PUBLIC "-//W3C//DTD SVG 1.1//EN" "http://www.w3.org/Graphics/SVG/1.1/DTD/svg11.dtd">
<!-- Creator: CorelDRAW 2017 -->
<svg xmlns="http://www.w3.org/2000/svg" xml:space="preserve" width="31.0101mm" height="27.8041mm" version="1.1" style="shape-rendering:geometricPrecision; text-rendering:geometricPrecision; image-rendering:optimizeQuality; fill-rule:evenodd; clip-rule:evenodd"
viewBox="0 0 1089.66 977"
 xmlns:xlink="http://www.w3.org/1999/xlink">
 <defs>
  <style type="text/css">
   <![CDATA[
    .fil0 {fill:black}
   ]]>
  </style>
 </defs>
 <g id="Warstwa_x0020_1">
  <metadata id="CorelCorpID_0Corel-Layer"/>
  <path class="fil0" d="M191.05 378.19c165.29,-0 330.63,-0.38 495.91,0.06 81.52,0.22 130.44,-0.79 198.68,50.58 169.65,127.72 95.41,416.21 -123.01,434.46 -92.43,7.72 -191.51,-20.64 -213.23,36.45 -12.48,32.81 6.36,66.67 40.61,73.95 26.63,5.66 91.94,2.33 122.59,2.35 413.07,0.35 504.51,-501.53 185.61,-669.16 -74.49,-39.16 -130.08,-37.61 -211.2,-38.06 -166.06,-0.92 -332.41,-0.01 -498.51,-0.01 27.75,-33.72 109.1,-107.88 146.89,-145.62 25.21,-25.17 61.18,-51.86 40.33,-92.54 -20.34,-39.66 -65.18,-38.78 -93.82,-9.28 -67.88,69.91 -149.42,147.04 -221.2,218.82 -23.72,23.72 -62.52,50.58 -60.63,86.94 1.56,29.88 42.52,61.51 63.17,82.2 24.76,24.8 50.23,47.66 75.04,72.49 48.13,48.18 96.96,99.71 146.28,146.22 29.53,27.84 71.52,30.59 93,-7.31 23.82,-42.02 -13.5,-68.45 -39.6,-94.42 -27.87,-27.74 -128.96,-126.32 -146.91,-148.13z"/>
 </g>
</svg>
