<?xml version="1.0" encoding="UTF-8"?>
<!DOCTYPE svg PUBLIC "-//W3C//DTD SVG 1.1//EN" "http://www.w3.org/Graphics/SVG/1.1/DTD/svg11.dtd">
<!-- Creator: CorelDRAW 2017 -->
<svg xmlns="http://www.w3.org/2000/svg" xml:space="preserve" width="50.3786mm" height="46.4616mm" version="1.1" style="shape-rendering:geometricPrecision; text-rendering:geometricPrecision; image-rendering:optimizeQuality; fill-rule:evenodd; clip-rule:evenodd"
viewBox="0 0 4776.09 4404.74"
 xmlns:xlink="http://www.w3.org/1999/xlink">
 <defs>
  <style type="text/css">
   <![CDATA[
    .fil0 {fill:black}
   ]]>
  </style>
 </defs>
 <g id="Warstwa_x0020_1">
  <metadata id="CorelCorpID_0Corel-Layer"/>
  <g id="_2748803396624">
   <path class="fil0" d="M4001.84 2968.19c0,121.42 100.98,91.81 205.37,130.44 411.39,152.22 500.65,673.59 207.72,954.3 -112.73,108.03 -256.7,165.25 -422.43,165.25l-2462.67 0c-214.37,0 -393.48,-89.24 -501.48,-198.14 -218.15,-219.99 -276.05,-509.12 -156.98,-796.14 49.41,-119.12 123.5,-200.98 218.64,-275.77 158.49,-124.57 299.86,-138.52 486.47,-138.52 93.33,0 173.27,58.88 227.93,-14.61 30.17,-40.56 22.24,-94.64 99.7,-198.81 275.74,-370.87 683.61,-131.73 707.82,-131.73 125.18,0 90.95,-147.8 285.03,-293.32 269.13,-201.78 643.26,-212.35 887.94,6.54 20.04,17.93 34.98,25.81 51.23,42.06 16.89,16.89 19.5,26.26 37.54,46.41 138.33,154.45 194.22,386.29 152.27,595.56 -8.5,42.43 -24.1,64.64 -24.1,106.49zm-1427.23 -727.61c-82.54,-19.24 -145.51,-46.64 -251.86,-46.64 -312.21,0 -529.34,171.4 -652.98,429.1l-177.25 -9.33c-351.25,0 -671.88,241.51 -795.64,528.98 -285.44,663.04 257.17,1262.06 758.33,1262.06l2602.6 0c370.83,0 718.27,-357.6 718.27,-727.61 0,-230.17 -43.01,-363.66 -174.28,-525.34 -27.54,-33.92 -42.44,-55.29 -76.17,-82.4 -75.36,-60.58 -209.59,-158.21 -309.24,-166.5 0,-149.81 66.97,-252.21 -62.57,-553.1 -20.43,-47.46 -52.1,-102.45 -81.21,-142.66 -69.9,-96.56 -127.33,-153.98 -223.88,-223.88 -385.52,-279.08 -950.87,-171.73 -1207.56,174.65 -17.05,23 -46.94,68.32 -66.56,82.69z"/>
   <path class="fil0" d="M1156.71 2492.44c0,-94.77 -167.92,-221.41 -167.92,-569.03 0,-761.23 846.63,-1182.32 1447.88,-776.24 128.35,86.68 189.35,154.07 270.37,279.99 154.33,239.89 75.45,356.32 222.04,356.32 224.66,0 -57.33,-500.96 -211.95,-655.59 -382.53,-382.53 -988.46,-440.85 -1433.65,-131.81 -374.99,260.31 -558.86,714.32 -458.71,1165.96 22.71,102.39 114.26,388 218.31,416.61 46.82,12.86 113.62,-24.96 113.62,-86.22z"/>
   <path class="fil0" d="M-0 1914.09c0,60.85 39.89,102.61 93.29,102.61 108.4,0 363.1,19.17 413.55,-24.88 70.48,-61.53 21.8,-171.02 -68.41,-171.02l-326.5 0c-60.21,0 -111.93,34.92 -111.93,93.29z"/>
   <path class="fil0" d="M1819.02 132.38c0,80.51 -13.02,317.32 21.85,369.93 46.97,70.86 174.04,38.98 174.04,-52.78l0 -354.47c0,-115.71 -195.89,-150.24 -195.89,37.31z"/>
   <path class="fil0" d="M3190.27 1279.77c43.63,0 110.99,-48.4 146.38,-68.18 83.7,-46.78 237.87,-117.24 257.17,-182.18 16.9,-56.85 -32.97,-117.53 -87.36,-120.1 -40.85,-1.92 -241.61,121.09 -286.51,148.26 -45.96,27.82 -172.5,79.28 -101.05,181.49 11.57,16.55 48.76,40.7 71.37,40.7z"/>
   <path class="fil0" d="M242.54 999.92c0,85.75 92.78,114.05 178.93,166.21 38.77,23.47 184.78,113.64 222.18,113.64 47.41,0 93.29,-42.73 93.29,-102.62 0,-74.7 -153.99,-141.57 -239.66,-189.45 -31.3,-17.49 -110.76,-69.68 -139.03,-76.11 -52.71,-11.98 -115.71,31.72 -115.71,88.32z"/>
   <path class="fil0" d="M914.17 328.28c0,72.78 75.73,171.64 111.45,233.69 44.73,77.68 77.64,176.75 159.07,176.75 42.38,0 93.28,-44.32 93.28,-83.96 0,-68.82 -129.98,-263.12 -170.78,-332.94 -82.95,-141.91 -193.02,-62.87 -193.02,6.46z"/>
   <path class="fil0" d="M2565.28 617.45c0,52.52 4.83,121.27 93.29,121.27 73.41,0 114.95,-109.67 156.88,-178.93 22.06,-36.44 39.74,-68.39 60.87,-107.04 16.82,-30.79 52.77,-77.06 52.77,-115.14 0,-74.99 -122.82,-155.06 -192.94,-25.02 -27.2,50.45 -170.87,285.99 -170.87,304.86z"/>
   <path class="fil0" d="M242.54 2828.26c0,61.43 49.18,102.62 93.28,102.62 31.25,0 277.63,-143.86 328.56,-175.17 148.56,-91.36 39.11,-211.71 -43.15,-192.99l-275.61 154.08c-39.62,22.58 -103.07,51.12 -103.07,111.47z"/>
  </g>
 </g>
</svg>
